<svg xmlns="http://www.w3.org/2000/svg" width="96" height="69.852" viewBox="0 0 96 69.852"><defs><style>.a{fill:#4f4f4f;}</style></defs><g transform="translate(0 -66.65)"><g transform="translate(0 66.65)"><path class="a" d="M75.011,136.5h-20.6V115.69h6.807a2.129,2.129,0,0,0,1.726-3.374L49.707,93.994a2.11,2.11,0,0,0-3.433,0L33.033,112.316a2.124,2.124,0,0,0,1.726,3.374h6.807V136.5H18.5C8.2,135.933,0,126.3,0,115.866A19.541,19.541,0,0,1,9.69,99a13.1,13.1,0,0,1-.8-4.571,13.286,13.286,0,0,1,13.3-13.3,13.072,13.072,0,0,1,4.551.8,26.625,26.625,0,0,1,50.589,8.788C87.938,92.543,96,102.37,96,113.493,96,125.38,86.741,135.678,75.011,136.5Z" transform="translate(0 -66.65)"/></g></g></svg>