<svg xmlns="http://www.w3.org/2000/svg" width="193.381" height="40.253" viewBox="0 0 193.381 40.253"><defs><style>.a{fill:#1e8fc6;}.a,.b{fill-rule:evenodd;}</style></defs><g transform="translate(0 -0.235)"><path class="a" d="M7.476,38.659H39.368V15.64h-15.7a2.007,2.007,0,0,0-.963.179.681.681,0,0,0-.315.648.7.7,0,0,0,.315.657,1.912,1.912,0,0,0,.963.189H30.23a5.787,5.787,0,0,1,3.369.82,2.838,2.838,0,0,1,1.154,2.478,4.506,4.506,0,0,1-.289,1.658,2.945,2.945,0,0,1-.918,1.243,4.412,4.412,0,0,1-1.613.774,8.987,8.987,0,0,1-2.351.27H14.645V19.907H7.476V38.659Z" transform="translate(0.888 1.83)"/><path class="b" d="M20.893,15.364a4.53,4.53,0,0,1,1.6-.758,8.988,8.988,0,0,1,2.351-.27H40.256V.235H0V40.489H4.614V14.334H8.364V18.6h7.169v-4.27h3.711V26.387l2.4-3.1h9.117a1.766,1.766,0,0,0,.973-.208.759.759,0,0,0,.306-.676.734.734,0,0,0-.306-.667,1.843,1.843,0,0,0-.973-.2H24.2a7.046,7.046,0,0,1-2.017-.253,4.036,4.036,0,0,1-1.405-.7,2.791,2.791,0,0,1-.829-1.09,3.614,3.614,0,0,1-.27-1.415,3.879,3.879,0,0,1,.3-1.541A2.962,2.962,0,0,1,20.893,15.364Z" transform="translate(0 0)"/><path class="b" d="M128.955,19.366c-2.434-2.5-5.651-5.616-8.3-8.342l-.747-.769h4.715c1.9,1.955,3.938,3.912,5.9,5.869Q129.668,17.708,128.955,19.366Z" transform="translate(14.243 1.19)"/><path class="b" d="M78.951,24.441H75.58v-11.6h3.372Z" transform="translate(8.977 1.497)"/><path class="b" d="M82.912,17.264v7.2H79.879V14.734a2.621,2.621,0,0,1,.158-.958,1.781,1.781,0,0,1,.409-.638,1.532,1.532,0,0,1,.583-.356,2.152,2.152,0,0,1,.707-.117,2.052,2.052,0,0,1,.636.108,2.206,2.206,0,0,1,.731.488l7.575,6.8v-7.2H93.73v9.711a2.6,2.6,0,0,1-.158.956,1.9,1.9,0,0,1-.409.65,1.512,1.512,0,0,1-.59.363,2.274,2.274,0,0,1-.714.117,2.11,2.11,0,0,1-.655-.108,2.074,2.074,0,0,1-.712-.485Z" transform="translate(9.488 1.476)"/><path class="b" d="M96.932,21.693h4.433a4.842,4.842,0,0,0,1.464-.213,3.556,3.556,0,0,0,1.164-.607,2.873,2.873,0,0,0,.772-.951,2.822,2.822,0,0,0,0-2.468,2.857,2.857,0,0,0-.791-.97,3.952,3.952,0,0,0-1.168-.631,4.409,4.409,0,0,0-1.441-.232H93.7l2.112-2.784h5.551a9.2,9.2,0,0,1,2.836.418,6.787,6.787,0,0,1,2.22,1.176,5.419,5.419,0,0,1,1.447,1.8,5.1,5.1,0,0,1,.518,2.289,5.266,5.266,0,0,1-.528,2.344,5.747,5.747,0,0,1-1.458,1.874,6.978,6.978,0,0,1-2.222,1.245,8.476,8.476,0,0,1-2.815.454H93.539V17.323h3.388v4.371Z" transform="translate(11.111 1.497)"/><path class="b" d="M72.441,19.846H65.035v4.6H61.647v-11.6h3.388v4.22h7.405v-4.22H75.8v11.6H72.441Z" transform="translate(7.323 1.497)"/><path class="b" d="M162.655,19.846h-7.406v4.6h-3.391V15.623H142.4a4.541,4.541,0,0,0-1.44.222,3.6,3.6,0,0,0-1.165.633,3.067,3.067,0,0,0-.779.968,2.712,2.712,0,0,0-.284,1.238,2.784,2.784,0,0,0,.274,1.238,2.756,2.756,0,0,0,.775.954,3.62,3.62,0,0,0,1.164.6,4.753,4.753,0,0,0,1.454.213h4.665V19.648h-5.987l1.948-2.339h7.394v7.131H142.4a8.476,8.476,0,0,1-2.815-.454,6.976,6.976,0,0,1-2.222-1.245,5.739,5.739,0,0,1-1.456-1.874,5.281,5.281,0,0,1-.528-2.344,5.061,5.061,0,0,1,.526-2.306,5.508,5.508,0,0,1,1.456-1.8,6.744,6.744,0,0,1,2.22-1.166,9.315,9.315,0,0,1,2.819-.411h12.851V17.06h10.758v7.379h-3.352V19.846Z" transform="translate(16.081 1.497)"/><path class="b" d="M168.01,15.623v8.818h-3.372V15.623h-5.6V12.839h15.456l-2.144,2.784Z" transform="translate(18.89 1.497)"/><path class="b" d="M121.845,12.839l2.705,2.784H112.784a2.177,2.177,0,0,0-1.033.2.832.832,0,0,0-.389.777.856.856,0,0,0,.389.786,2.106,2.106,0,0,0,1.035.21h6.483a5.72,5.72,0,0,1,3.24.781,2.661,2.661,0,0,1,1.073,2.32,4.332,4.332,0,0,1-.275,1.582,2.743,2.743,0,0,1-.86,1.164,4.223,4.223,0,0,1-1.538.736,8.623,8.623,0,0,1-2.282.26H107.849l2.125-2.748h8.937a1.947,1.947,0,0,0,1.052-.232.91.91,0,0,0,.373-.8.882.882,0,0,0-.375-.791,2.026,2.026,0,0,0-1.047-.222h-6.484a6.876,6.876,0,0,1-1.95-.241,3.827,3.827,0,0,1-1.336-.667,2.589,2.589,0,0,1-.772-1.016,3.432,3.432,0,0,1-.256-1.338,3.685,3.685,0,0,1,.282-1.46,2.773,2.773,0,0,1,.86-1.1,4.328,4.328,0,0,1,1.529-.719,8.654,8.654,0,0,1,2.282-.26h8.777Z" transform="translate(12.81 1.497)"/><path class="a" d="M167.593,2.571c-21.225-5.405-37.481,8.414-40.629,28.764h3.156C133.36,13.026,148.026-.65,167.593,2.571Z" transform="translate(15.081 0.138)"/><path class="b" d="M49.206.235H48.5V40.489h.71Z" transform="translate(5.76 0)"/></g></svg>