<svg xmlns="http://www.w3.org/2000/svg" width="96" height="92.971" viewBox="0 0 96 92.971"><defs><style>.a{fill:#4f4f4f;}</style></defs><g transform="translate(-409.383 -3625)"><g transform="translate(409.383 3625)"><path class="a" d="M105.824,97.368,82.745,75.017a38.3,38.3,0,0,0,9.169-24.836C91.914,28.551,73.792,11,51.457,11,29.1,11,11,28.551,11,50.181S29.1,89.361,51.457,89.361A41.054,41.054,0,0,0,77.083,80.5l23.079,22.332a4.089,4.089,0,0,0,5.662,0A3.763,3.763,0,0,0,105.824,97.368ZM51.457,81.563c-17.887,0-32.424-14.078-32.424-31.382s14.537-31.4,32.424-31.4c17.868,0,32.424,14.1,32.424,31.4S69.325,81.563,51.457,81.563Z" transform="translate(-11 -11)"/></g><g transform="translate(428.175 3660.548)"><circle class="a" cx="5.469" cy="5.469" r="5.469" transform="translate(0 0)"/><circle class="a" cx="5.469" cy="5.469" r="5.469" transform="translate(16.407 0)"/><circle class="a" cx="5.469" cy="5.469" r="5.469" transform="translate(32.813 0)"/></g></g></svg>