<svg xmlns="http://www.w3.org/2000/svg" width="94.912" height="94.726" viewBox="0 0 94.912 94.726"><defs><style>.a{fill:#4f4f4f;}</style></defs><g transform="translate(-904.51 -2725.619)"><g transform="translate(904.51 2725.619)"><g transform="translate(33.553)"><path class="a" d="M194.9,28.306a13.9,13.9,0,1,1,13.9-13.9A13.919,13.919,0,0,1,194.9,28.306Z" transform="translate(-181 -0.5)"/></g><g transform="translate(0 58.57)"><path class="a" d="M1.858,337.318a13.9,13.9,0,1,1,18.995,5.089,13.921,13.921,0,0,1-18.995-5.089Z" transform="translate(0 -316.455)"/></g><g transform="translate(67.103 58.57)"><path class="a" d="M368.942,342.406a13.9,13.9,0,1,1,18.995-5.089A13.9,13.9,0,0,1,368.942,342.406Z" transform="translate(-361.987 -316.455)"/></g></g><g transform="translate(910.322 2743.735)"><path class="a" d="M36.9,131.1l-5.55-.3a41.865,41.865,0,0,1,18.8-32.574l3.052,4.649A36.3,36.3,0,0,0,36.9,131.1Z" transform="translate(-31.352 -98.223)"/></g><g transform="translate(971.761 2743.735)"><path class="a" d="M379.085,131.1a36.3,36.3,0,0,0-16.3-28.23l3.052-4.649a41.864,41.864,0,0,1,18.8,32.574Z" transform="translate(-362.787 -98.224)"/></g><g transform="translate(933.164 2810.915)"><path class="a" d="M173.376,470.057a41.3,41.3,0,0,1-18.8-4.467l2.509-4.964a36.371,36.371,0,0,0,32.585,0l2.509,4.964A41.3,41.3,0,0,1,173.376,470.057Z" transform="translate(-154.574 -460.626)"/></g></g></svg>