<svg xmlns="http://www.w3.org/2000/svg" width="748.295" height="448.043" viewBox="0 0 748.295 448.043"><defs><style>.a{fill:#8ac8f1;}.b{fill:#fefefe;}.c{fill:#1a1a1a;}.d{fill:#b5b5b5;}.e{fill:#fff;}</style></defs><g transform="translate(-0.019 0.001)"><rect class="a" width="146.286" height="146.286" transform="translate(473.688 57.18)"/><rect class="b" width="397.749" height="268.282" rx="6.5" transform="translate(132.492 139.818)"/><path class="b" d="M66.876,239.431V211.676s-11.269,2.922-12.521-7.3,8.973-11.06,10.851-10.225a51.112,51.112,0,0,1,5.426,2.5,35.269,35.269,0,0,0,7.3-7.93,60.727,60.727,0,0,0,3.13-12.521s7.3,7.3,13.564,7.513a53.213,53.213,0,0,0,10.643-.626v2.5a12.521,12.521,0,0,1,5.008,10.643c0,7.3-2.3,10.851-4.174,11.686v11.269a10.851,10.851,0,0,1-10.225,9.182l1.461,11.895-6.26,23.79Z" transform="translate(14.28 11.406)"/><path class="c" d="M94.463,211.2s-21.912,3.756-31.511,16.277-19.407,26.085-26.085,44.449-6.469,17.529-9.182,26.5a168.615,168.615,0,0,0-5.843,35.059c-.626,9.182,2.3,24.416,14.608,31.094s18.781,7.3,18.781,7.3,0,11.269-.209,15.651.209,10.434.209,10.434H185.24s-3.756-15.025-4.591-20.66-1.669-19.2-1.669-19.2l-11.06.417s-13.982-4.8-14.4-15.651,0-32.554,0-32.554l5.426-5.634a51.753,51.753,0,0,0-12.73-19.616L136.2,275.057s7.513-13.356,9.182-16.9,3.13-10.643,7.93-9.6V216.417l-14.4-5.008Z" transform="translate(-21.028 49.445)"/><path class="b" d="M42.921,120.926,35.2,129.9l17.321,38.189,3.13-3.756,11.269,31.3,5.008-3.965,4.591,2.5,4.382-7.1-2.5-25.459.835,1.252.209-32.554L72.554,120.3Z" transform="translate(38.235 130.746)"/><path class="b" d="M337.815,238.4s-17.947,1.043-22.746-15.86,3.339-23.581,6.887-25.251,6.886-8.556,8.347-11.06,5.008-9.182,12.73-10.017,13.982.835,17.112,4.591c0,0,8.347-2.087,14.19.835A29.215,29.215,0,0,1,389.36,197.7a31.513,31.513,0,0,1,1.252,11.686c-1.043,5.008-2.713,7.721-1.043,11.06s3.13,5.217.626,8.765-11.269,8.973-16.9,9.182Z" transform="translate(296.141 11.188)"/><path class="c" d="M333.362,234.075s7.1-9.808,17.112-13.356,21.912-6.469,26.5-6.678l25.668-.417s16.695-.626,23.79,2.713,13.147,4.174,22.12,23.581c0,0,9.808,17.947,12.1,23.164s10.643,25.251,12.1,35.476,5.008,29.007-5.008,45.075c0,0-6.469,10.017-10.225,10.643v40.9H326.685a73.667,73.667,0,0,0,5.217-21.494c1.043-11.478,1.461-17.738,1.461-17.738s-17.738,1.043-27.129-14.608c0,0-9.6-12.521-11.478-20.66A53.423,53.423,0,0,0,291,309.2Z" transform="translate(271.587 52.029)"/><path class="b" d="M321.6,199.786s3.548,18.155,5.008,23.79,4.8,15.442,14.19,13.773l.626.835,2.922,11.06s-2.5,18.364,2.5,18.99,18.781-15.443,21.7-19.825l-7.721-30.05s9.6-2.5,7.513-10.643c0,0-1.461-7.1-11.06-4.382a16.068,16.068,0,0,1-6.887-10.017c-1.461-6.886-2.3-10.017-2.3-10.017a22.746,22.746,0,0,1-12.312,7.93C328.278,192.9,322.435,197.49,321.6,199.786Z" transform="translate(304.844 19.123)"/><path class="b" d="M332.7,238.483l-5.426,6.887-1.669-5.008S331.234,237.648,332.7,238.483Z" transform="translate(309.191 78.924)"/><path class="b" d="M341.808,238.7l-8.347,9.808-6.26,1.669,8.973,25.668s6.26-.417,8.139-.835a31.093,31.093,0,0,1,8.347,10.851,60.1,60.1,0,0,0,11.06-8.138,128.124,128.124,0,0,0,10.225-11.686,219.327,219.327,0,0,0-13.773-17.112C355.581,244.126,352.242,240.369,341.808,238.7Z" transform="translate(310.93 79.333)"/><path class="b" d="M294.415,237.8l3.756,10.434a76.594,76.594,0,0,0,13.356,1.043c4.382-.417,10.225.417,9.808,5.008a13.981,13.981,0,0,1-2.087,6.26s4.174,2.713,3.756,5.634a14.814,14.814,0,0,1-2.087,5.426,3.965,3.965,0,0,1,2.5,3.756,6.26,6.26,0,0,1-5.008,6.887c-3.756,1.252-13.982,3.548-22.329.626s-10.643-19.2-11.06-24.833S286.9,242.182,294.415,237.8Z" transform="translate(265.041 78.355)"/><path class="b" d="M203.436,199.9a21.077,21.077,0,0,0-12.521-5.426c-8.139-.835-8.556.626-8.556.626s-4.174-2.087-6.678-.626-2.087,5.217-2.087,5.217-3.965,2.3-1.878,9.6a22.12,22.12,0,0,0,4.174,13.147c4.382,6.26,6.26,8.347,7.513,11.06a50.293,50.293,0,0,1,2.5,7.1s9.182-4.382,15.651-4.591a101.427,101.427,0,0,1,13.356.626s-2.087-8.765-2.087-10.225a56.557,56.557,0,0,0-.835-9.808,72.205,72.205,0,0,0-2.922-7.3l-13.982-.835-8.556-8.765Z" transform="translate(141.287 30.699)"/><path class="b" d="M233.609,215.6c0,.417-.209,3.13-.209,3.13h4.174Z" transform="translate(208.986 54.227)"/><path class="b" d="M257.758,222.672s6.469,4.382,10.643-1.043a7.93,7.93,0,0,0-1.252-11.895c-2.087-1.043-6.887-2.5-10.225.417a15.443,15.443,0,0,1-10.434-9.6,57.6,57.6,0,0,1-3.548-15.651s-5.217.626-8.973,10.225l-2.3,15.234s-7.721,1.461-8.347,3.965,5.008,7.1,5.008,7.1-2.713,15.86,12.312,17.112c0,0,2.922-6.26,7.1-7.93s8.139-2.713,9.182-3.756S259.219,224.758,257.758,222.672Z" transform="translate(197.984 20.862)"/><path class="a" d="M305,164.529,319.816,147l6.26,5.426L312.93,168.077l-5.634,1.669Z" transform="translate(331.46 159.764)"/><path class="b" d="M312.1,148.522l2.3-2.922,6.26,5.008-2.3,2.922Z" transform="translate(339.177 158.243)"/><path class="b" d="M276.1,174.459,264,139.4h68.239l33.806,99.124-67.613.209Z" transform="translate(286.901 151.504)"/><path class="a" d="M267.352,140.848l-1.252-3.339,67.822-.209,34.433,99.542H362.72l-32.763-95.159Z" transform="translate(289.183 149.222)"/><path class="c" d="M254.184,228.284a4.8,4.8,0,0,1-4.382,4.174c-4.174.626-11.895,5.008-13.356,10.017s.835,12.938,15.234,15.651,23.79.626,26.92-.835,9.808-4.382,8.973-11.269-7.1-10.434-8.556-11.686-.835-3.548-.417-6.052,5.217-18.99,5.426-20.66,1.043-9.391-2.922-15.025-15.025-8.347-15.025-8.347-10.851-3.756-17.947-3.548-14.608.417-17.321,5.217-5.217,9.182-1.878,16.486a17.112,17.112,0,0,1,9.6-13.356s1.252,14.4,4.591,18.364,5.634,6.887,8.765,7.1a7.93,7.93,0,0,1,5.634-2.087,8.973,8.973,0,0,1,8.556,7.93s-.626,7.721-5.426,8.556S254.184,228.284,254.184,228.284Z" transform="translate(202.392 16.293)"/><path class="a" d="M301.588,220.322s-14.608,1.878-20.242,8.139A73.248,73.248,0,0,0,268.2,248.7c-3.13,6.887-7.513,18.364-8.973,20.868s-4.591,11.06-12.938,9.808-9.182-7.93-10.643-12.1l-15.86-48.206s-8.973-7.1-23.79-4.591A31.928,31.928,0,0,0,174.5,226.791s3.965,24.833,6.469,34.641,7.3,27.337,12.521,37.354,16.695,27.963,35.476,31.3,30.885,0,35.685-1.878l.626.417-2.5,66.152H368.157l-2.087-55.718s11.06,6.887,19.825,1.669a18.155,18.155,0,0,0,8.556-18.155A114.357,114.357,0,0,0,390.069,299a191.985,191.985,0,0,0-14.816-34.433c-7.93-13.982-17.947-28.589-17.947-28.589a39.441,39.441,0,0,0-12.1-11.895c-7.513-3.965-8.765-2.922-8.765-2.922a47.161,47.161,0,0,1-17.947,2.087,83.68,83.68,0,0,1-16.9-2.921Z" transform="translate(144.972 52.427)"/><path class="c" d="M157.1,110.4l30.676,1.669-.626,8.347-21.494-1.252Z" transform="translate(170.719 119.986)"/><rect class="b" width="8.347" height="4.069" transform="matrix(0.056, -0.998, 0.998, 0.056, 357.885, 240.373)"/><path class="b" d="M177.017,196.1,167,200.274l7.93,4.174S175.556,197.561,177.017,196.1Z" transform="translate(136.821 33.034)"/><path class="c" d="M263.71,242.2s-6.052,48.832-45.91,66.778V297.5s11.895-2.5,24.625-16.486S263.71,242.2,263.71,242.2Z" transform="translate(192.031 83.137)"/><path class="d" d="M309.938,257.1s-1.878,9.391-10.851,10.434L297,263.152S305.765,263.569,309.938,257.1Z" transform="translate(278.108 99.33)"/><rect class="b" width="35.476" height="35.434" transform="translate(511.46 220.996)"/><path class="a" d="M279.017,196.213a2.609,2.609,0,0,1-5.217,0,2.611,2.611,0,1,1,5.217,0Z" transform="translate(252.893 30.208)"/><circle class="a" cx="1.878" cy="1.878" r="1.878" transform="translate(378.529 172.999)"/><rect class="c" width="27.755" height="59.287" transform="translate(479.74 80.344)"/><path class="e" d="M251.9,53.8V86.772l4.382,6.469.626,13.564h22.538V53.8Z" transform="translate(273.75 58.472)"/><rect class="e" width="27.337" height="33.702" transform="translate(571.56 131.471)"/><path class="b" d="M76.4,256.075s5.634-9.182,7.93-13.564,3.756-9.182,4.8-10.851a4.174,4.174,0,0,1,4.8-2.5c2.3.835,2.713,2.713,2.5,5.426s-2.5,9.182-2.3,10.851.835,4.8,4.591,3.756,8.347-4.8,10.434-6.678l10.017-9.6a5.217,5.217,0,0,1,5.634-.626,4.8,4.8,0,0,1,1.878,5.634,5.634,5.634,0,0,1,3.756,1.461c1.252,1.669,1.878,4.382.835,5.008s-.209,1.043,1.252,2.087a4.174,4.174,0,0,1,.417,5.217c-.835,2.087-7.721,10.434-13.982,15.442s-16.695,11.895-21.077,12.938c0,0-6.26-8.973-9.808-13.147A101.207,101.207,0,0,0,76.4,256.075Z" transform="translate(38.354 68.844)"/><path class="c" d="M41.074,107.2l-.417,5.008-3.756-4.8Z" transform="translate(40.083 116.508)"/><path class="a" d="M69.282,204.131s7.1-5.217,8.973-11.06a45.284,45.284,0,0,0,2.087-9.808,18.364,18.364,0,0,0,14.816,7.513c10.434.417,9.391-.835,9.391-.835v2.087l2.087,1.043a26.92,26.92,0,0,0-.417-9.808c-1.043-4.591-4.591-8.139-10.225-11.06a24.624,24.624,0,0,0-13.982-2.3c-1.252.626-7.513,2.3-8.765,3.548l-.835.626s-7.513.417-10.851,3.756A16.486,16.486,0,0,0,55.3,188.9c-.626,5.426-.626,11.477,1.043,14.19A9.6,9.6,0,0,1,62.4,201,11.268,11.268,0,0,1,69.282,204.131Z" transform="translate(15.004 4.344)"/><path class="c" d="M68.9,195.1a9.808,9.808,0,0,1,4.591,3.756,7.513,7.513,0,0,1,.417,4.591,9.6,9.6,0,0,0,6.052-.626c2.922-1.252,3.13-3.965,2.3-5.008s-3.339-.209-4.8-.209-2.922,0-3.339-1.252-1.669-3.756-3.548-3.548S68.9,195.1,68.9,195.1Z" transform="translate(30.2 29.441)"/><path class="a" d="M46.4,146.173l6.887,9.6-1.252,16.9,2.713,9.808,5.843-3.756,3.756,2.3,4.382-7.1-1.252-8.973-5.634-10.017,1.043-11.269L54.747,132.4Z" transform="translate(50.408 143.896)"/><path class="a" d="M340.057,213.909l.626,2.3s-2.922,18.573,2.3,18.781,14.19-10.017,15.86-11.895l6.052-7.721-.626-1.669h4.382a60.519,60.519,0,0,1-2.5,18.573c-2.713,9.182-5.843,15.651-11.06,15.651a11.477,11.477,0,0,1-9.808-5.426,19.614,19.614,0,0,1-1.878-6.052s-8.973,8.139-12.938,7.721-7.1-3.965-4.591-10.225a198.461,198.461,0,0,1,10.643-19.2Z" transform="translate(308.507 52.162)"/><path class="c" d="M96.463,189.568h64.274V125.5a62.6,62.6,0,0,0-46.745,20.034C93.75,167.239,96.463,189.568,96.463,189.568Z" transform="translate(60.028 -43.698)"/><path class="a" d="M169.4,132.9v64.9H104.5a65.109,65.109,0,1,0,64.9-64.9Z" transform="translate(68.894 -35.653)"/><path class="e" d="M78.731,172.1a22.746,22.746,0,0,0-7.93-2.3c-.209,0,17.947,9.6,12.521,20.868,3.339,0,3.965-.417,3.965-.835v2.087l2.087,1.043a26.92,26.92,0,0,0-.417-9.808C87.913,178.565,84.365,175.017,78.731,172.1Z" transform="translate(32.267 4.451)"/><path class="e" d="M74.382,176s-7.1,16.9-13.982,18.364l3.339,2.5c1.461-1.043,6.887-5.634,8.556-10.643a45.284,45.284,0,0,0,2.087-9.808h0Z" transform="translate(20.965 11.189)"/><path class="e" d="M238.44,188.721s1.252,14.4,4.591,18.364,5.634,6.887,8.765,7.1H252c-11.269-6.887-10.225-30.259-10.017-33.18-5.008.417-9.391,1.461-11.269,4.8s-5.217,9.182-1.878,16.486a17.112,17.112,0,0,1,9.6-13.564Z" transform="translate(202.485 16.623)"/><path class="e" d="M244.017,232.716a7.93,7.93,0,0,1-3.13-2.713,13.356,13.356,0,0,1-1.669-3.965,15.233,15.233,0,0,1,.835-9.6,9.808,9.808,0,0,1,3.13-3.965l4.174-2.3a14.816,14.816,0,0,0,2.921-2.087,13.983,13.983,0,0,0,2.3-2.921l-1.67-1.043-1.252-.626a4.8,4.8,0,0,1-4.382,4.174c-4.174.626-11.895,5.008-13.356,10.017S232.54,229.377,244.017,232.716Z" transform="translate(206.925 41.077)"/><path class="e" d="M49.1,137.082l5.634,6.887-.417,10.851,10.851,19.407-.209-7.721-6.052-11.895,1.669-11.269L51.813,132.7Z" transform="translate(53.342 144.223)"/><path d="M208.876,207.986l-20.868-1.252c-.417,0-.835-.417-.626-.835a.626.626,0,0,1,.626-.626l20.242,1.043.417-6.887-29.842-1.669a.626.626,0,0,1-.626-.626.835.835,0,0,1,.835-.835l30.468,1.669c.209.209.417.209.417.417s.209.209.209.417l-.417,8.347A.835.835,0,0,1,208.876,207.986Z" transform="translate(148.993 33.252)"/><path d="M197.4,207.217h-4.174c-.417,0-.626-.417-.626-.835s.417-.835.835-.626h3.339v-6.887h-3.339c-.417,0-.626-.417-.626-.835s.417-.626.835-.835l3.965.417h.626c.209,0,.209.209.209.417l-.417,8.347C198.026,206.8,197.817,207.217,197.4,207.217Z" transform="translate(164.643 34.23)"/><path d="M176.308,205.844h-.417l-8.973-4.591a1.043,1.043,0,0,1-.417-.835l.417-.626,10.434-3.965a.835.835,0,0,1,1.043.417c0,.417-.209.835-.417.835L169,200.627l7.513,3.965a.835.835,0,0,1,.417,1.043Z" transform="translate(136.277 32.681)"/><path d="M189.9,219.237h-.417c-13.982-9.182-16.9-16.069-17.529-19.2a6.261,6.261,0,0,1,1.043-4.8c3.13-3.756,8.973.209,9.182.417h.209c0,.209,11.686,13.982,18.364,16.069a.835.835,0,1,1-.626,1.461c-6.678-2.3-17.738-15.234-18.781-16.486s-5.008-3.13-7.1-.417a3.965,3.965,0,0,0-.835,3.548c.417,2.3,2.922,8.973,16.695,18.155a.835.835,0,0,1,.417,1.043Z" transform="translate(142.088 30.348)"/><path d="M185.75,224.807h-.626c-.626-.626-13.982-11.895-14.4-21.7a8.765,8.765,0,0,1,2.713-7.3h1.043a1.044,1.044,0,0,1,0,1.043,7.513,7.513,0,0,0-2.3,6.052c.417,9.391,13.773,20.66,13.982,20.66s.417.835,0,1.043Z" transform="translate(140.817 32.708)"/><path d="M199.1,201.391h-.626a22.328,22.328,0,0,0-8.765-5.634c-4.591-1.043-12.938.417-13.147.417a1.118,1.118,0,0,1-.835-.626c-.209-.417.209-.835.626-.835s8.765-1.461,13.773-.417a22.956,22.956,0,0,1,9.6,6.052c.209.417.209.835-.209,1.043Z" transform="translate(146.247 30.665)"/><path d="M195.541,229.85a.626.626,0,0,1-.626-.626,33.6,33.6,0,0,1-2.087-12.1,30.259,30.259,0,0,0-3.756-15.025c-.209-.417-.209-.835.209-1.043a.835.835,0,0,1,1.043.209,31.511,31.511,0,0,1,3.965,15.86,48.2,48.2,0,0,0,1.878,11.686c.209.417,0,.835-.417.835Z" transform="translate(160.659 38.308)"/><path d="M186.6,233.346l-.626-.417a56.344,56.344,0,0,0-4.591-9.391l-.835-1.043c-2.713-3.339-11.269-13.982-9.182-20.868a.764.764,0,1,1,1.461.417c-1.878,6.26,6.26,16.277,8.973,19.616s.626.626.626.835,4.8,9.6,5.008,9.808a.835.835,0,0,1-.417,1.043Z" transform="translate(141.216 38.36)"/><path d="M334.52,255.709h-.626a.835.835,0,0,1,0-1.043l12.938-15.443-5.217-4.382-14.19,16.9a.763.763,0,1,1-1.252-.835l14.817-17.529c.209-.417.626-.417,1.043-.209L348.5,238.6c0,.209.209.209.209.417a.834.834,0,0,1-.209.626l-13.564,16.069Z" transform="translate(309.662 73.175)"/><path d="M340.182,241.417h-.417a.835.835,0,0,1,0-1.252l2.087-2.5-5.217-4.382-2.3,2.5c-.209.417-.626.417-1.043.209a.835.835,0,0,1,0-1.043l2.5-3.13.626-.417h.626l6.26,5.426a.626.626,0,0,1,.209,1.043L340.808,241Z" transform="translate(317.355 71.399)"/><path d="M329.464,251.59c-.417,0-.626-.209-.835-.626s.209-.835.626-.835l6.886-2.087c.417-.209.835,0,.835.417s0,.835-.417.835l-6.886,2.3Z" transform="translate(312.422 89.398)"/><path d="M327.526,247.664a.626.626,0,0,1-.626-.626c0-.417.209-.835.626-.835,3.965-.626,8.973-1.669,11.686-3.548s.835-.209,1.043.209.209.835-.209,1.043-8.139,3.13-12.312,3.756Z" transform="translate(310.604 82.682)"/><path d="M330.735,254.847c-.417,0-.626-.209-.835-.626a.835.835,0,0,1,.835-.835,60.743,60.743,0,0,0,6.886-1.043c.417-.209.835,0,.835.417a.835.835,0,0,1-.417,1.043l-7.3,1.043Z" transform="translate(313.864 94.071)"/><path d="M326.062,241.874a1.043,1.043,0,0,1-.835-.417.835.835,0,0,1,.417-1.043,21.077,21.077,0,0,1,8.347-2.713.835.835,0,0,1,.835.835c0,.417-.417.626-.835.835a18.99,18.99,0,0,0-7.721,2.3Z" transform="translate(308.729 78.246)"/><path d="M366.772,266.99h-.417c-.209-.209-14.19-18.155-17.529-21.077a30.885,30.885,0,0,0-14.4-6.052c-.417,0-.626-.417-.626-.835s.417-.626.835-.626a30.05,30.05,0,0,1,15.025,6.469c3.756,2.922,17.112,20.451,17.738,21.077a.835.835,0,0,1,0,1.043Z" transform="translate(318.103 79.007)"/><path d="M348.838,268.112l-.626-.417c-3.339-5.634-7.1-10.434-8.139-10.434h-1.252a52.357,52.357,0,0,1-7.1.626c-.417,0-.626-.417-.626-.835s.417-.626.835-.626a42.165,42.165,0,0,0,6.469-.626h1.669c2.5,0,7.513,7.721,9.391,11.06s.209.835-.209,1.043Z" transform="translate(315.168 97.918)"/><path d="M227.741,210.927h-1.252c-.417,0-.626-.417-.626-.835a1.043,1.043,0,0,1,1.043-.626h1.878a5.217,5.217,0,0,0,3.756-2.922,4.174,4.174,0,0,0,.626-2.3l-.626-.417H231.5c-.417.209-.626.626-1.043,1.043s-.835,1.043-1.461,1.252a3.13,3.13,0,0,1-3.339-.417c-.209-.209-.417-.626-.209-.835a.835.835,0,0,1,1.043-.417c1.043.626,1.669.626,1.878.417l1.043-1.043a2.922,2.922,0,0,1,1.461-1.252,2.5,2.5,0,0,1,2.087-.209,2.3,2.3,0,0,1,1.461,1.252A5.008,5.008,0,0,1,234,207.38a6.678,6.678,0,0,1-5.008,3.547Z" transform="translate(200.246 39.701)"/><path d="M62.072,373.038c-16.9,0-35.685-10.017-39.441-26.92-5.008-21.912,6.887-56.136,10.643-65.944,7.3-19.616,11.06-26.711,19.407-40.067,13.356-20.868,26.5-26.711,41.945-29.007.417,0,.835.209.835.626s-.209.835-.626.835c-15.443,2.3-27.755,7.93-40.9,28.381-8.139,13.147-11.895,20.242-19.2,39.858-3.756,9.808-15.442,43.406-10.643,65.109,3.965,17.947,26.085,27.755,43.2,25.251,31.928-4.382,86.6-61.77,91.194-66.57a55.928,55.928,0,0,0-9.808-15.651c-9.182-10.851-14.816-14.19-16.277-14.816-4.8,2.922-58.64,36.937-77.421,65.526-.209.417-.626.417-1.043.209s-.417-.626-.209-1.043c19.616-30.05,77.63-65.735,78.256-66.152h.626c.417,0,6.26,2.5,17.321,15.234,7.93,9.391,10.017,16.277,10.017,16.486v.835c0,.209-58.64,62.813-92.446,67.613Z" transform="translate(-21.4 49.337)"/><path d="M76.955,204.713a8.556,8.556,0,0,1-3.339-.626,7.93,7.93,0,0,1-5.008-5.843,4.8,4.8,0,0,1,.417-4.591,2.922,2.922,0,0,1,2.5-1.252,4.382,4.382,0,0,1,3.339,2.713c.835,1.878,1.043,1.878,1.461,2.087s.835.209,2.713-.417a3.756,3.756,0,0,1,3.965.209,3.339,3.339,0,0,1,1.252,2.713,6.052,6.052,0,0,1-2.922,3.756A8.14,8.14,0,0,1,76.955,204.713ZM71.32,194.07l-1.252.626c-.417.417-.417,1.669,0,3.13A7.1,7.1,0,0,0,80.5,202.209a4.382,4.382,0,0,0,2.3-2.713,1.461,1.461,0,0,0-.626-1.252,2.922,2.922,0,0,0-2.713-.209c-2.087.835-2.713,1.043-3.548.626s-1.461-.835-2.5-2.922a2.5,2.5,0,0,0-1.878-1.669Z" transform="translate(29.452 29.012)"/><path d="M74.812,203.308H74.6c-.209-.209-.626-.626-.417-.835,1.461-5.634-5.008-7.513-5.426-7.513s-.626-.417-.417-.835.417-.626.835-.626,7.93,3.548,6.469,9.182C75.438,203.1,75.229,203.308,74.812,203.308Z" transform="translate(29.508 30.208)"/><path d="M45.577,297.529H45.16c-.417-.209-.626-.835-.417-1.043,13.982-27.337,17.529-62.813,17.529-63.231s.417-.835.835-.626.626.417.626.835-3.548,36.1-17.529,63.648Z" transform="translate(3.859 72.674)"/><path d="M78.381,213.112H73.373a26.711,26.711,0,0,1-7.513-1.461c-.417,0-.626-.417-.417-.835a.835.835,0,0,1,1.043-.417,31.3,31.3,0,0,0,6.887,1.252c8.556.626,13.773-.209,16.9-2.713a9.6,9.6,0,0,0,2.922-6.887c0-1.878.209-6.26.209-10.017a.835.835,0,1,1,1.669,0c-.209,3.965-.209,8.139-.417,10.225a10.017,10.017,0,0,1-3.548,7.721C88.606,212.068,84.433,213.112,78.381,213.112Z" transform="translate(26.357 27.709)"/><path d="M79.235,182.856a.835.835,0,0,1-.835-.835v-2.087c0-.417.209-.626.626-.835a.835.835,0,0,1,.835.835v2.087C79.861,182.439,79.652,182.648,79.235,182.856Z" transform="translate(40.528 14.558)"/><path d="M60.735,222.85a.835.835,0,0,1-.835-.835V193.635a.835.835,0,0,1,.835-.835c.417,0,.626.417.626.835v28.381C61.361,222.433,61.152,222.85,60.735,222.85Z" transform="translate(20.422 29.448)"/><path d="M63.85,204.158a9.808,9.808,0,0,1-6.26-2.087,9.182,9.182,0,0,1-3.548-6.678,10.225,10.225,0,0,1,1.878-7.3,9.182,9.182,0,0,1,6.678-3.548,10.226,10.226,0,0,1,7.3,1.878,11.687,11.687,0,0,1,2.922,4.174.835.835,0,0,1-.417,1.043c-.417,0-.835-.209-.835-.417a7.721,7.721,0,0,0-2.713-3.548A8.973,8.973,0,0,0,62.807,186a7.721,7.721,0,0,0-5.634,3.13,7.93,7.93,0,0,0-1.669,6.052,7.721,7.721,0,0,0,3.13,5.634,8.139,8.139,0,0,0,10.434,0,.835.835,0,0,1,1.043,0c.209.417.209.835-.209,1.043a10.017,10.017,0,0,1-6.052,2.3Z" transform="translate(13.967 20.385)"/><path d="M76.016,214.364c-.417,0-.835-.209-.835-.626l-1.252-12.1c-.209-.417.209-.835.626-.835s.626.209.835.626l1.252,12.1C76.85,213.947,76.433,214.364,76.016,214.364Z" transform="translate(35.608 38.142)"/><path d="M62.178,198.02h-.626a.835.835,0,0,1,.209-1.043c10.434-7.3,10.643-20.242,10.643-20.242a1.043,1.043,0,0,1,.417-.835c.417,0,.626,0,.835.417S82,186.751,97.237,183a.835.835,0,0,1,1.043.417,1.043,1.043,0,0,1-.626,1.043,24.624,24.624,0,0,1-23.79-6.26c-.626,3.965-2.5,13.564-11.269,19.825Z" transform="translate(22.109 11.08)"/><path d="M57.654,197.794l-.626-.417a.835.835,0,0,1,.417-1.043L63.5,193.2l-5.843-5.634c-.417-.417-.417-.835,0-1.043s.626-.417,1.043,0l6.469,6.26c.209.209.209.417.209.835l-.417.417-6.887,3.756Z" transform="translate(17.242 22.367)"/><path d="M68.045,177.569c-.209,0-.626-.209-.626-.417l-3.756-4.382c-.417-.417-.417-.835,0-1.043s.835-.417,1.043,0l3.756,4.591c.417.209.209.626,0,1.043Z" transform="translate(24.171 6.282)"/><path d="M56.653,203.782a1.043,1.043,0,0,1-.835-.417c-.209-.626-3.965-12.938,1.878-21.7,2.922-4.591,7.93-7.3,14.816-7.93,1.461-1.252,10.643-7.721,24.625-1.878s11.686,16.069,10.851,22.12c-.209.417-.626.835-1.043.626s-.626-.417-.626-.835c1.252-6.887.417-16.069-9.808-20.451-14.19-6.052-22.955,1.669-23.164,1.669h-.417c-6.469.626-11.269,3.13-13.982,7.3-5.426,8.139-1.669,20.242-1.669,20.451s0,.835-.417.835Z" transform="translate(14.486 4.066)"/><path d="M63.12,199.821H62.7a17.321,17.321,0,0,1-4.8-5.426.626.626,0,0,1,.209-1.043.835.835,0,0,1,1.043.209,17.737,17.737,0,0,0,4.382,5.008.626.626,0,0,1,.209,1.043Z" transform="translate(18.036 29.939)"/><path d="M76.6,202.229l-.626-.417a.835.835,0,0,1,.417-1.043h.835l1.669-.626a3.339,3.339,0,0,0,1.252-1.669,2.3,2.3,0,0,0-.417-1.461,2.921,2.921,0,0,0-2.087-1.252H75.561l-.626-.626L74.1,184.7h1.461l.835,9.808h1.461a5.843,5.843,0,0,1,3.339,1.878,4.174,4.174,0,0,1,.417,2.713,3.965,3.965,0,0,1-2.087,2.5l-1.878.835H76.6Z" transform="translate(35.855 20.644)"/><path d="M237.14,194.617h-.626a5.008,5.008,0,0,0-5.843-1.043c-.417.209-.835.209-1.043-.209a.835.835,0,0,1,.417-1.043,6.26,6.26,0,0,1,7.721,1.252c.209.417.209.835-.209,1.043Z" transform="translate(204.828 28.048)"/><path d="M231.474,194.825c-.626-.209-1.043.209-1.252,2.3s.417,2.922.835,2.922,1.252-.835,1.252-2.5S232.1,194.825,231.474,194.825Z" transform="translate(205.486 31.596)"/><path d="M245.916,213.648a10.226,10.226,0,0,1-5.008-1.669.626.626,0,0,1-.209-1.043c.209-.417.626-.417,1.043-.209a7.531,7.531,0,0,0,11.686-6.052,7.1,7.1,0,0,0-7.513-7.513,7.3,7.3,0,0,0-6.26,3.548.835.835,0,0,1-1.043.209.626.626,0,0,1-.209-1.043,8.556,8.556,0,0,1,7.513-4.174,8.973,8.973,0,0,1,0,17.947Z" transform="translate(214.208 32.599)"/><path d="M246.269,206.953h-.417l-5.634-3.756-.417-.417c0-.417.209-.626.417-.626l5.634-4.382c.417-.209.835-.209,1.043.209s.209.835-.209,1.043l-4.8,3.548,4.8,3.13a.626.626,0,0,1,.209,1.043Z" transform="translate(215.941 34.702)"/><path d="M233.755,220c-.417-.209-.835-.417-.626-.835v-3.339c.209-.417.417-.626.835-.626a.835.835,0,0,1,.835.835v3.13a.835.835,0,0,1-1.043.835Z" transform="translate(208.631 53.793)"/><path d="M217.134,336.548a.626.626,0,0,1-.626-.626c-.209-12.1,1.669-52.588,2.3-67.2,0-.417.417-.626.835-.626a.835.835,0,0,1,.835.835c-.835,14.4-2.713,54.883-2.5,66.987C217.969,336.339,217.552,336.548,217.134,336.548Z" transform="translate(190.61 111.286)"/><path d="M164.426,194.461h-64.9a.626.626,0,0,1-.626-.626c0-.417.209-.835.626-.835H163.8V128.726a.626.626,0,0,1,.626-.626c.417,0,.835.209.835.626v65.109a.835.835,0,0,1-.835.626Z" transform="translate(62.808 -40.87)"/><path d="M164.852,260.235A65.318,65.318,0,1,1,209.3,243.123H208.05a1.043,1.043,0,0,1,.209-1.252,65.735,65.735,0,1,0-32.346,15.86,1.043,1.043,0,0,1,1.043.626c0,.417-.209.835-.626.835a52.171,52.171,0,0,1-11.478,1.043Z" transform="translate(62.382 -41.744)"/><path d="M92.971,218.3h-.417a37.563,37.563,0,0,0-14.4-5.843c-.417,0-.835-.417-.626-.835s.417-.626.835-.626a40.692,40.692,0,0,1,15.025,6.052A.835.835,0,0,1,93.6,218.1Z" transform="translate(39.521 49.228)"/><path d="M103.715,321.976l-.835-.417c-3.13-9.391-5.217-22.538-6.052-39.024-.209-.417.209-.835.626-.835s.835.209.835.626c1.043,16.486,2.922,29.633,6.052,38.606a.835.835,0,0,1-.417,1.043Z" transform="translate(60.497 126.066)"/><path d="M38.422,315.346c-.417,0-.626-.209-.835-.626a241.019,241.019,0,0,1,0-26.294c.209-.417.417-.626.835-.626a.835.835,0,0,1,.835.835,185.937,185.937,0,0,0,0,25.877.835.835,0,0,1-.835.835Z" transform="translate(-4.219 132.696)"/><path d="M82,205.036l-2.087-.417c-.417-.209-.417-.626-.209-1.043a.833.833,0,0,1,.835-.417l1.669.417c2.922,0,5.426-5.217,5.426-11.06s-2.922-10.851-5.843-10.851-5.634,5.217-5.426,11.06a14.19,14.19,0,0,0,1.252,6.469.835.835,0,1,1-1.252.835,17.946,17.946,0,0,1-1.669-7.3c0-6.887,2.922-12.312,6.887-12.521s7.3,5.426,7.513,12.312-2.922,12.521-6.887,12.521Z" transform="translate(36.507 15.751)"/><path d="M73.317,204.725a6.26,6.26,0,0,1-5.217-3.548,18.573,18.573,0,0,1-2.087-8.556,18.781,18.781,0,0,1,1.669-8.765A6.052,6.052,0,0,1,72.9,180.1a5.634,5.634,0,0,1,5.217,3.548A18.573,18.573,0,0,1,80.2,192.2a16.9,16.9,0,0,1-1.669,8.765A5.843,5.843,0,0,1,73.317,204.725ZM72.9,181.561q-2.087,0-3.756,3.13a15.025,15.025,0,0,0-1.669,7.721,17.738,17.738,0,0,0,1.878,7.93c1.252,1.878,2.5,2.922,3.965,2.922s2.713-1.043,3.756-3.13a15.443,15.443,0,0,0,1.669-7.93,15.025,15.025,0,0,0-1.878-7.721,4.8,4.8,0,0,0-3.965-2.922Z" transform="translate(27.038 15.645)"/><path d="M387.408,287.167c-.209,0-.626-.209-.626-.417-8.556-14.816-29.007-32.346-36.1-37.145-.417-.209-.417-.626-.209-1.043a.835.835,0,0,1,1.043-.209c6.26,4.382,27.337,21.7,36.519,37.563a.835.835,0,0,1-.209,1.043Z" transform="translate(336.073 89.714)"/><path d="M332.055,307.416l-6.469-.626c-15.86-3.548-29.216-26.085-35.059-46.745a.835.835,0,0,1,.417-1.043,1.043,1.043,0,0,1,1.043.626c5.843,20.242,18.573,42.362,34.015,45.7a45.7,45.7,0,0,0,7.512.626c.417,0,.835.209.835.626s-.209.835-.626.835Z" transform="translate(271.016 101.394)"/><path d="M397.808,358.785c-23.164.209-53.423-32.137-62.6-42.363a.626.626,0,0,1,.209-1.043h1.043c24.833,28.381,49.04,44.032,64.274,41.737s24.624-20.451,25.251-36.728-4.174-36.1-14.816-58.64c-2.087-4.591-4.591-9.182-6.887-13.356s-2.922-5.217-4.174-7.93l-1.252-2.3c-2.922-5.634-5.843-11.478-10.852-15.651-10.852-8.765-27.546-8.139-34.224-7.3-.417,0-.835-.209-.835-.626s.209-.835.626-.835c6.887-.835,24-1.669,35.476,7.513,5.217,4.382,8.139,10.434,11.06,16.277l1.252,2.3,4.174,7.721,7.1,13.564c10.643,22.746,15.651,42.78,15.025,59.266s-10.434,35.893-26.711,38.189Z" transform="translate(319.413 51.694)"/><path d="M311.663,234.677h-.417a.626.626,0,0,1,0-1.043c8.973-11.686,21.912-15.86,32.137-18.155.209,0,7.93-1.669,11.895-1.878.417,0,.835.209.835.626a.835.835,0,0,1-.835.835c-3.756.209-11.478,1.878-11.686,1.878-9.808,2.3-22.538,6.26-31.3,17.738Z" transform="translate(293.286 52.054)"/><path d="M338.731,230.041h-1.669a10.225,10.225,0,0,1-7.721-6.052,34.013,34.013,0,0,1-3.548-10.434c-.417-1.669-.835-3.965-1.252-6.678-1.252-5.843-2.713-13.147-3.339-15.234a1.043,1.043,0,0,1,.626-1.043c.417,0,.835.209.835.626s2.087,9.182,3.339,15.442c.417,2.5.835,4.8,1.252,6.678a40.273,40.273,0,0,0,3.339,10.017,9.182,9.182,0,0,0,6.678,5.217,16.486,16.486,0,0,0,6.052-.626,64.7,64.7,0,0,0,8.347-2.713.835.835,0,0,1,1.043.417,1.669,1.669,0,0,1-.417,1.043,67.616,67.616,0,0,1-8.556,2.713,29.63,29.63,0,0,1-5.008.626Z" transform="translate(304.407 27.057)"/><path d="M343.814,209.258a5.635,5.635,0,0,1-2.713-.417c-.417,0-.626-.417-.417-.835s.417-.626.835-.417a8.556,8.556,0,0,0,3.965,0,7.1,7.1,0,0,0,5.217-8.556,7.512,7.512,0,0,0-3.13-4.382,7.1,7.1,0,0,0-5.426-.835A6.678,6.678,0,0,0,338.6,195.9c-.417.209-.835.417-1.043,0s-.417-.626-.209-1.043a9.391,9.391,0,0,1,4.382-2.5A7.721,7.721,0,0,1,348.2,193.4a8.973,8.973,0,0,1,3.965,5.217,8.765,8.765,0,0,1-6.469,10.434Z" transform="translate(321.862 28.641)"/><path d="M344.979,203.462h-.417l-5.843-3.13-.417-.626a.835.835,0,0,1,.209-.626l5.008-5.217c.417-.417.835-.417,1.043,0s.417.626,0,1.043l-4.174,4.382L345.4,202c.417.209.417.626.209,1.043Z" transform="translate(322.992 30.263)"/><path d="M359.575,274.312c-.417,0-.835-.209-.835-.626a114.358,114.358,0,0,0-8.139-41.11.835.835,0,0,1,1.461-.626,125.626,125.626,0,0,1,8.138,41.736A.626.626,0,0,1,359.575,274.312Z" transform="translate(336.36 71.684)"/><path d="M330.969,207.8h-1.043c-.417,0-.626-.417-.626-.835s.417-.835.835-.626a4.174,4.174,0,0,0,5.217-5.008.835.835,0,0,1,.835-.835c.417,0,.626.209.835.626a7.1,7.1,0,0,1-1.878,5.217,5.635,5.635,0,0,1-4.174,1.461Z" transform="translate(313.212 37.816)"/><path d="M308.749,329.962h-.209a.626.626,0,0,1-.417-.835c6.678-14.817,6.26-54.675,6.26-55.092a.835.835,0,0,1,.835-.835c.417,0,.626.417.626.835s.417,40.693-6.469,55.718A2.1,2.1,0,0,1,308.749,329.962Z" transform="translate(290.149 116.828)"/><path d="M307.547,285.36c-7.93,0-14.19-1.878-16.695-5.217a28.381,28.381,0,0,1-4.382-9.808,50.711,50.711,0,0,1-1.252-19.407c.835-6.887,8.556-13.147,8.765-13.356a.727.727,0,0,1,1.043.209.931.931,0,0,1,0,1.043c-.209.209-7.513,5.843-8.347,12.312a57.184,57.184,0,0,0,1.252,18.781A20.868,20.868,0,0,0,292.1,279.1c2.3,3.13,10.017,5.634,21.494,4.382,3.548-.417,9.808-3.13,9.391-7.721a4.382,4.382,0,0,0-2.3-3.13.835.835,0,0,1-.209-1.043c.209-.417.626-.417,1.043-.417a5.843,5.843,0,0,1,2.922,4.382c.626,5.426-6.052,8.765-10.643,9.391Z" transform="translate(264.848 77.957)"/><path d="M309.188,258.366A134.58,134.58,0,0,1,291.45,256.7a.835.835,0,0,1,.626-1.461,118.321,118.321,0,0,0,18.781,1.669h.626c1.461-.209,3.548-.417,4.174-1.669a5.843,5.843,0,0,0,.835-5.217,7.3,7.3,0,0,0-3.339-3.339,7.512,7.512,0,0,0-4.382-.626h-1.252c-15.442.417-18.364-2.922-18.573-3.339a.626.626,0,0,1,0-1.043c.417-.209.835-.209,1.043.209s2.922,3.13,17.529,2.713h1.252a11.478,11.478,0,0,1,5.217.626,8.765,8.765,0,0,1,3.965,4.382,7.3,7.3,0,0,1-1.043,6.469c-1.044,1.878-3.548,2.087-5.217,2.3h-2.5Z" transform="translate(269.05 82.413)"/><path d="M305.489,262.662a131.049,131.049,0,0,1-15.234-1.043c-.417-.209-.835-.626-.626-.835a.835.835,0,0,1,.835-.835,81.176,81.176,0,0,0,20.66.835c3.13-.209,6.469-2.3,6.052-6.052a7.3,7.3,0,0,0-3.339-5.008.835.835,0,0,1-.209-1.043c.417-.417.835-.417,1.043-.209a8.764,8.764,0,0,1,3.965,6.26,7.1,7.1,0,0,1-7.3,7.512Z" transform="translate(270.036 89.804)"/><path d="M337.3,250.929h-1.043c-4.591-1.461-3.13-15.86-2.713-18.99l-2.713-12.312c-.209-.417.209-.835.626-1.043a1.043,1.043,0,0,1,.835.626L335,231.73c.209,0,.209,0,0,.209-.835,6.678-.835,16.695,1.878,17.529s14.816-10.643,20.868-18.781l-7.513-29.842a.835.835,0,0,1,.418-1.043,1.043,1.043,0,0,1,1.043.626l7.721,30.05c0,.209,0,.626-.209.626S344.185,250.929,337.3,250.929Z" transform="translate(314.813 37.054)"/><path d="M74.747,256.066l-.626-.417L56.383,216.834a.626.626,0,0,1,0-.835l7.721-9.182.626-.417.417.417,23.164,23.79,6.052-23.372.626-.417c.417-.209.626,0,.835.209L101.876,216v33.6l-.417.626h-.835L88.729,233.737,75.373,255.649C75.373,256.066,74.956,256.066,74.747,256.066Zm-16.9-39.441,17.112,37.145,12.73-21.494-22.955-24Zm31.72,15.234,10.851,15.234V216.625l-5.008-7.3Z" transform="translate(16.426 44.229)"/><path d="M78,260.2c-.417,0-.626-.209-.835-.626-4.8-15.442-11.06-31.094-11.06-31.3a.835.835,0,0,1,1.461-.626c0,.209,6.26,15.86,11.06,31.511a.835.835,0,0,1-.417,1.043Z" transform="translate(27.158 67.011)"/><path d="M80.239,252.5c-.417,0-.835-.209-.835-.626a217.448,217.448,0,0,0-2.5-25.042c0-.417.209-.835.626-.835s.835.209.835.626a217.447,217.447,0,0,1,2.5,25.042C80.865,252.085,80.656,252.5,80.239,252.5Z" transform="translate(38.898 65.53)"/><path d="M75.029,237.076H74.4l-6.678-9.6c-.417-.209-.209-.835,0-1.043a.727.727,0,0,1,1.043.209l6.678,9.182,7.513-.835.835-10.434c0-.417.417-.835.835-.626s.835.417.626.835l-.835,11.06a.626.626,0,0,1-.626.626l-8.556.835Z" transform="translate(28.665 63.219)"/><path d="M70.935,249.534a.835.835,0,0,1-.835-.835l1.461-18.573c0-.417.417-.626.835-.626s.626.417.626.835L71.561,248.7A.835.835,0,0,1,70.935,249.534Z" transform="translate(31.507 69.334)"/><path d="M81.829,242.916,81.2,242.5l-6.26-12.312c-.209-.209,0-.835.417-1.043a.762.762,0,0,1,1.043.417l6.052,12.312a.835.835,0,0,1-.417,1.043Z" transform="translate(36.681 68.857)"/><path d="M765.314,301.761H25.535c-.417,0-.835-.209-.835-.626a.835.835,0,0,1,.835-.835H765.314a.835.835,0,0,1,.835.835C766.149,301.552,765.731,301.761,765.314,301.761Z" transform="translate(-17.834 146.281)"/><path d="M324.117,194.346c.626-.209,1.043-.209,1.669,1.878s.209,2.922-.417,3.13-1.252-.626-1.461-2.3S323.491,194.555,324.117,194.346Z" transform="translate(307.126 31.032)"/><path d="M332.33,192.333c.626-.209,1.043,0,1.669,2.087s0,2.922-.417,2.922-1.252-.417-1.669-2.3S331.7,192.542,332.33,192.333Z" transform="translate(315.816 28.871)"/><path d="M371.235,322.528a.835.835,0,0,1-.835-.835c.417-10.225,0-39.65,0-39.858a.835.835,0,0,1,.835-.835c.417,0,.626.417.626.835s.626,29.633,0,40.067A.626.626,0,0,1,371.235,322.528Z" transform="translate(357.881 125.306)"/><path d="M242.965,333a50.711,50.711,0,0,1-36.937-14.817c-12.1-12.312-17.947-29.215-22.12-44.241a434.888,434.888,0,0,1-9.808-46.327v-.835c.209-.417,5.634-11.269,24.207-12.938s22.329,4.8,22.538,5.217.209,0,.209.209L237.122,268.1c1.252,3.965,2.3,7.721,5.843,9.6a9.391,9.391,0,0,0,11.06-1.043c3.339-2.713,5.008-6.678,6.678-10.643l2.5-5.843a176.965,176.965,0,0,1,8.556-19.407c4.8-8.765,10.852-14.817,17.738-17.947a35.476,35.476,0,0,1,13.773-2.922.835.835,0,0,1,.835.835.626.626,0,0,1-.626.626,36.52,36.52,0,0,0-13.356,2.922c-6.678,2.922-12.312,8.765-17.112,17.321s-5.843,12.73-8.556,18.99c-.835,2.087-1.461,4.174-2.3,6.052a26.711,26.711,0,0,1-7.1,11.06,11.06,11.06,0,0,1-12.73,1.461c-4.174-2.5-5.426-6.469-6.678-10.643l-16.069-48.623c-.626-.835-6.469-5.843-21.077-4.591S176.4,225.738,175.561,227.2h0a431.112,431.112,0,0,0,9.808,46.119c4.174,14.816,10.017,31.511,21.7,43.614,18.364,18.781,46.536,16.9,66.361,6.886.417-.209.835-.209,1.043.209a.835.835,0,0,1-.417,1.043A68.447,68.447,0,0,1,242.965,333Z" transform="translate(144.537 52.019)"/><path d="M284.175,392.1c-.417,0-.626-.209-.835-.626s-3.756-39.024-1.878-67.4,0-65.109,0-66.778c-.209-5.843-3.339-12.938-6.469-19.616a36.937,36.937,0,0,0-8.765-12.521,28.171,28.171,0,0,0-13.773-6.469c-.417-.209-.835-.417-.626-.835s.417-.835.835-.626a28.172,28.172,0,0,1,14.4,6.887,37.147,37.147,0,0,1,9.391,12.938c3.13,6.887,6.26,14.19,6.469,20.242a653.187,653.187,0,0,1,0,66.987c-1.878,28.172,1.878,66.57,2.087,66.987a.835.835,0,0,1-.835.835Z" transform="translate(228.954 55.937)"/><path d="M211.2,305.819h-6.469c-.417,0-.626-.417-.626-.835s.417-.835.835-.626c60.309,4.8,74.708-64.483,74.917-65.318a.626.626,0,0,1,.835-.417c.417,0,.626.417.626.835S267.539,305.819,211.2,305.819Z" transform="translate(177.142 79.201)"/><path d="M285.54,335.652a26.5,26.5,0,0,1-12.73-3.965.835.835,0,0,1-.209-1.043,1.043,1.043,0,0,1,1.252-.209c.417.417,13.356,9.6,23.581-1.878,13.982-15.443-13.147-76.169-37.772-105.8a1.043,1.043,0,0,1,.209-1.252.626.626,0,0,1,1.043.209C286.375,252.6,313.3,313.324,298.479,329.6A16.9,16.9,0,0,1,285.54,335.652Z" transform="translate(237.397 60.428)"/><path d="M240.529,239.7a13.773,13.773,0,0,1-10.225-5.008,16.486,16.486,0,0,1-2.3-12.312c-1.252-1.252-5.008-5.008-5.008-7.513s5.634-4.174,8.139-4.591l1.878-13.356c.209-.626,3.965-11.06,10.225-12.521h.626v.626c0,.209.835,22.746,13.147,24.833.417,0,.835.417.626.835s-.417.626-.835.626c-12.1-2.087-14.19-20.66-14.4-25.251-5.008,2.087-8.139,11.06-8.139,11.06l-1.878,13.982a.626.626,0,0,1-.626.626c-3.548.417-7.513,1.878-7.513,3.13s2.922,4.8,4.8,6.678.209.417.209.626-1.461,6.887,2.087,11.686a12.312,12.312,0,0,0,8.973,4.382c.417,0,.626.417.626.835a.626.626,0,0,1-.417.626Z" transform="translate(197.683 20.318)"/><path d="M265.636,260.818a64.066,64.066,0,0,1-16.486-2.3,23.373,23.373,0,0,1-9.182-4.174,11.9,11.9,0,0,1-4.174-9.391c.626-5.426,5.634-9.182,9.6-10.851l2.5-.835c3.548-1.043,6.052-2.087,6.052-4.591a.835.835,0,1,1,1.669,0c-.209,3.965-4.174,5.008-7.3,6.052l-2.3.626c-3.756,1.669-8.139,5.008-8.765,9.808a10.017,10.017,0,0,0,3.756,7.93,20.45,20.45,0,0,0,8.556,3.965c8.556,2.3,20.868,3.965,30.468-.626a12.938,12.938,0,0,0,6.26-5.008c3.548-5.634-.835-10.643-5.008-14.19l-.626-.417c-1.252-1.043-2.922-2.5-2.713-4.382a133.357,133.357,0,0,1,5.634-23.164v-.626c1.043-6.678-.209-12.1-3.548-16.069a21.7,21.7,0,0,0-13.773-7.3h-.209a39.236,39.236,0,0,0-7.3-2.087c-19.2-3.13-26.92-.626-30.05,9.6-1.252,4.174,1.043,11.686,1.043,11.895a.626.626,0,0,1-.417.835.835.835,0,0,1-1.043-.417c0-.417-2.5-8.139-1.043-12.73,3.756-12.73,15.025-13.564,31.72-10.643a44.245,44.245,0,0,1,7.513,2.087,23.79,23.79,0,0,1,14.816,7.721c3.548,4.382,4.8,10.225,3.756,17.321a3.759,3.759,0,0,1-.209,1.043,156.72,156.72,0,0,0-5.634,22.746c0,1.043,1.252,2.087,2.3,2.922l.417.417c4.382,3.756,9.6,9.6,5.426,16.277a15.65,15.65,0,0,1-6.887,5.634A36.519,36.519,0,0,1,265.636,260.818Z" transform="translate(201.792 15.896)"/><path d="M152.863,230.346h-.417a.626.626,0,0,1,0-1.043L183.539,198h1.043a.835.835,0,0,1,0,1.252l-31.094,31.094Z" transform="translate(120.698 35.099)"/><path d="M154.223,219.659H153.6l-10.434-10.643c-.417-.209-.417-.626,0-1.043a1.043,1.043,0,0,1,1.043,0l10.643,10.643a1.043,1.043,0,0,1,0,1.043Z" transform="translate(110.574 45.786)"/><path d="M125.78,238.513h-.417c-.417-.209-.417-.626,0-1.043l29.424-29.424a.626.626,0,0,1,1.043,0c.417.209.417.626,0,1.043l-29.424,29.424Z" transform="translate(91.228 45.713)"/><path d="M133.468,235.407c-.209,0-.417,0-.417-.209L110.1,212.243a.835.835,0,0,1,0-1.043h1.043l22.955,22.955a.835.835,0,0,1,0,1.043Z" transform="translate(74.776 49.445)"/><path d="M144.769,215.838a6.469,6.469,0,1,1,6.469-6.469A6.469,6.469,0,0,1,144.769,215.838Zm0-11.478a5.008,5.008,0,1,0,5.008,5.008A5.008,5.008,0,0,0,144.769,204.361Z" transform="translate(105.629 40.425)"/><path d="M153.869,225.038a6.469,6.469,0,1,1,6.469-6.469,6.469,6.469,0,0,1-6.469,6.469Zm0-11.478a5.008,5.008,0,1,0,5.008,5.008,4.8,4.8,0,0,0-5.008-5.008Z" transform="translate(115.519 50.423)"/><path d="M126.669,234.238a6.469,6.469,0,1,1,6.469-6.469,6.469,6.469,0,0,1-6.469,6.469Zm0-11.478a5.008,5.008,0,1,0,5.008,5.008,5.008,5.008,0,0,0-5.008-5.008Z" transform="translate(85.957 60.422)"/><path d="M111.669,219.138a6.469,6.469,0,1,1,6.469-6.469A6.469,6.469,0,0,1,111.669,219.138Zm0-11.478a5.008,5.008,0,1,0,5.008,5.008,5.008,5.008,0,0,0-5.008-5.008Z" transform="translate(69.655 44.011)"/><path d="M387.98,325.985H319.95c-.417,0-.626,0-.835-.417l-9.391-27.337c0-.417.209-.835.626-.835a.626.626,0,0,1,.835.417l9.182,26.711h66.57l-33.6-97.872h-66.57l11.895,34.224a1.043,1.043,0,0,1-.626,1.043c-.417,0-.835-.209-.835-.626l-12.1-35.059V225.4h68.865c.417,0,.626.209.626.417l34.224,99.542a.835.835,0,0,1-.209.626Z" transform="translate(265.175 64.878)"/><path d="M390.129,324.3h-5.634a.835.835,0,0,1-.835-.835c0-.417.417-.626.835-.626h4.591l-33.6-97.872h-66.57l.835,2.087a.835.835,0,1,1-1.461.626l-1.043-3.339c-.209-.209,0-.417,0-.626l.626-.417h68.239a.626.626,0,0,1,.626.626l34.224,99.333a.835.835,0,0,1-.209.626C390.755,324.094,390.546,324.3,390.129,324.3Z" transform="translate(267.409 62.596)"/><path d="M320.926,206.072c-.417,0-.626-.417-.626-.835s0-8.973,13.147-12.938,15.651-9.182,15.651-9.182l.835-.417c.417.209.626.417.626.835s1.252,16.486,8.347,19.616a.835.835,0,1,1-.626,1.461c-6.469-2.922-8.556-14.608-8.973-19.2-1.878,2.087-6.26,5.843-15.442,8.347s-12.1,11.478-12.1,11.478a.835.835,0,0,1-.835.835Z" transform="translate(303.431 18.471)"/><path d="M373.241,240c-.417,0-.835-.209-.835-.626s.209-.835.626-.835c4.591-.835,14.816-4.591,17.529-9.6a5.008,5.008,0,0,0,.417-4.174l-.835-1.252-.835-1.878a14.19,14.19,0,0,1,.209-8.347,22.963,22.963,0,0,0,.626-3.339,27.547,27.547,0,0,0-1.878-13.564,23.164,23.164,0,0,0-16.486-14.19,33.184,33.184,0,0,0-7.93-.417h-.626c-2.5.417-2.922.417-3.13,0-4.174-4.382-11.895-5.843-18.364-3.756a17.738,17.738,0,0,0-11.06,10.643,33.788,33.788,0,0,1-2.087,3.756,23.581,23.581,0,0,1-7.3,7.1l-2.087,1.669a12.312,12.312,0,0,0-2.921,3.965,26.293,26.293,0,0,0-1.252,12.938c1.669,12.1,10.643,20.451,21.7,20.451h.835a.626.626,0,0,1,.626.626c0,.417-.209.835-.626.835-12.312.417-22.12-8.556-24-21.7a27.546,27.546,0,0,1,1.461-13.773,12.729,12.729,0,0,1,3.13-4.591l2.3-1.669a23.372,23.372,0,0,0,6.887-6.678l1.878-3.548,1.878-3.548a18.782,18.782,0,0,1,10.225-7.93,19.825,19.825,0,0,1,19.616,3.965h2.922a49.66,49.66,0,0,1,8.139.626,24.624,24.624,0,0,1,17.738,15.234,27.338,27.338,0,0,1,1.878,14.19,25.466,25.466,0,0,1-.626,3.548,11.059,11.059,0,0,0-.209,7.3l.835,1.669.626,1.461a6.678,6.678,0,0,1-.209,5.634c-3.339,5.843-14.816,9.6-18.781,10.225Z" transform="translate(295.774 10.633)"/><path d="M322.4,194.839h-.626c-.209-.417-.209-.835.209-1.043a11.894,11.894,0,0,1,5.008-2.3c.417,0,.835.209.835.626s-.209.835-.626.835a11.476,11.476,0,0,0-4.382,2.087Z" transform="translate(304.881 28.035)"/><path d="M329.363,192.718h-.417a.626.626,0,0,1,0-1.043,10.643,10.643,0,0,1,11.06-1.252.835.835,0,1,1-.626,1.461,9.6,9.6,0,0,0-9.391.835Z" transform="translate(312.523 25.774)"/><path d="M337.492,279.438a2.713,2.713,0,0,1-2.087-.835c-1.461-1.669-.209-5.217,3.965-10.225.209-.417.626-.417,1.043-.209a.591.591,0,0,1,0,1.043c-3.965,5.008-4.591,7.721-3.756,8.347s2.3.417,6.26-1.669a64.277,64.277,0,0,0,12.1-8.765c9.391-8.765,13.564-15.86,12.312-17.321s-2.5-.417-5.426,1.252a.835.835,0,0,1-1.043-.417c-.209-.417-.209-.835.209-1.043s5.634-2.713,7.3-.835-4.174,11.895-12.312,19.407a70.119,70.119,0,0,1-12.521,9.182A15.86,15.86,0,0,1,337.492,279.438Z" transform="translate(319.211 89.514)"/><path d="M330.186,211.558a5.426,5.426,0,0,1-4.382-1.669,2.5,2.5,0,0,1-.209-2.921c.835-1.878,1.461-10.017,1.669-13.147s.417-.626.835-.626.626.417.626.835-.626,11.06-1.878,13.564a1.252,1.252,0,0,0,.209,1.461,4.174,4.174,0,0,0,4.174.835c.417,0,.835.209.835.626s-.209.835-.626.835Z" transform="translate(308.779 28.845)"/><path d="M297.246,240.221c-3.13,0-6.469-3.548-7.93-8.556s-.209-11.06,2.922-11.895,6.886,2.3,8.556,7.3a.835.835,0,1,1-1.461.626c-1.461-4.382-4.382-7.3-6.678-6.469s-3.13,5.217-1.878,10.017,4.591,8.139,7.1,7.3.835.209.835.626,0,.835-.417.835Z" transform="translate(269.097 58.613)"/><path d="M307.244,240.221c-3.13,0-6.469-3.548-7.93-8.556s-.209-11.06,3.13-11.895,6.678,2.3,8.347,7.3a.835.835,0,0,1-.417,1.043c-.417.209-.835,0-.835-.417-1.669-4.382-4.591-7.3-6.678-6.469s-3.339,5.217-2.087,10.017,4.591,8.139,7.1,7.3.835.209.835.626,0,.835-.417.835Z" transform="translate(279.967 58.613)"/><path d="M317.344,240.221c-3.13,0-6.469-3.548-7.93-8.556s-.209-11.06,3.13-11.895,6.678,2.3,8.347,7.3a.835.835,0,1,1-1.461.626c-1.461-4.382-4.382-7.3-6.678-6.469s-3.13,5.217-1.878,10.017,4.591,8.139,7.1,7.3.835.209.835.626,0,.835-.417.835Z" transform="translate(290.944 58.613)"/><path d="M337.341,234.561H293.935c-.417,0-.835-.209-.835-.626a.835.835,0,0,1,.835-.835h43.406c.417,0,.626.417.626.835A.626.626,0,0,1,337.341,234.561Z" transform="translate(273.869 73.247)"/><path d="M339.241,240.161H295.835a.835.835,0,0,1-.835-.835c0-.417.417-.626.835-.626h43.406a.626.626,0,0,1,.626.626C339.867,239.743,339.658,240.161,339.241,240.161Z" transform="translate(275.934 79.333)"/><path d="M339.046,250.461H302.526a.626.626,0,0,1-.626-.626c0-.417.209-.835.626-.835h36.519a.835.835,0,0,1,.835.835C339.88,250.252,339.463,250.461,339.046,250.461Z" transform="translate(283.433 90.527)"/><path d="M336.25,245.561H302.235c-.417,0-.835-.209-.835-.626a.835.835,0,0,1,.835-.835H336.25c.417,0,.626.417.626.835A.626.626,0,0,1,336.25,245.561Z" transform="translate(282.89 85.202)"/><path d="M342.032,255.961h-38.4a.835.835,0,0,1-.835-.835c0-.417.417-.626.835-.626h38.4a.626.626,0,0,1,.626.626C342.658,255.543,342.45,255.961,342.032,255.961Z" transform="translate(284.411 96.505)"/><path d="M346.332,261.361H302.926c-.417,0-.626-.417-.626-.835a.626.626,0,0,1,.626-.626h43.406c.417,0,.835.209.835.626A.835.835,0,0,1,346.332,261.361Z" transform="translate(283.868 102.374)"/><path d="M302.411,228.837H266.935A.835.835,0,0,1,266.1,228V192.526c0-.417.417-.626.835-.626h35.476a.626.626,0,0,1,.626.626V228C303.037,228.419,302.828,228.837,302.411,228.837Zm-34.85-1.669h34.015V193.361H267.561Z" transform="translate(244.525 28.47)"/><path d="M230.9,203.937H195.426a.626.626,0,0,1-.626-.626V167.835c0-.417.209-.835.626-.835H230.9a.835.835,0,0,1,.835.835v35.476C231.737,203.728,231.319,203.937,230.9,203.937Zm-34.641-1.461h33.807V168.461H196.261Z" transform="translate(167.034 1.408)"/><path d="M205.439,175.178a3.339,3.339,0,1,1,3.339-3.339,3.339,3.339,0,0,1-3.339,3.339Zm0-5.426a1.878,1.878,0,1,0,1.408.622,1.878,1.878,0,0,0-1.408-.622Z" transform="translate(174.968 3.038)"/><path d="M211.4,175.961h-3.965c-.417,0-.835-.209-.835-.626a.835.835,0,0,1,.835-.835H211.4a.835.835,0,0,1,.835.835C212.234,175.752,211.817,175.961,211.4,175.961Z" transform="translate(179.859 9.559)"/><path d="M208.325,175.961h-9.391c-.417,0-.835-.209-.835-.626a.835.835,0,0,1,.835-.835h9.391c.417,0,.626.417.626.835a.626.626,0,0,1-.626.626Z" transform="translate(170.621 9.559)"/><path d="M220.638,179.461h-21.7c-.417,0-.835-.209-.835-.626a.835.835,0,0,1,.835-.835h21.7a.835.835,0,0,1,.835.835C221.472,179.252,221.055,179.461,220.638,179.461Z" transform="translate(170.621 13.363)"/><path d="M276.839,199.978a3.339,3.339,0,1,1,3.339-3.339,3.339,3.339,0,0,1-3.339,3.339Zm0-5.217a1.878,1.878,0,1,0,1.878,1.878,1.878,1.878,0,0,0-1.878-1.878Z" transform="translate(252.567 29.991)"/><path d="M292.038,200.969H270.126c-.417,0-.626-.417-.626-.835s.209-.835.626-.835h21.912c.417,0,.626.417.626.835S292.455,200.969,292.038,200.969Z" transform="translate(248.22 36.512)"/><path d="M280.56,204.361H270.126c-.417,0-.626-.417-.626-.835a.626.626,0,0,1,.626-.626H280.56c.417,0,.835.209.835.626a.835.835,0,0,1-.835.835Z" transform="translate(248.22 40.425)"/><path d="M154.829,251.961h-16.9a.626.626,0,0,1-.626-.626c0-.417.209-.835.626-.835h16.9a.835.835,0,0,1,.835.835C155.664,251.752,155.247,251.961,154.829,251.961Z" transform="translate(104.542 92.157)"/><path d="M167.166,251.961H103.935c-.417,0-.835-.209-.835-.626a.835.835,0,0,1,.835-.835h63.231a.835.835,0,0,1,.835.835C168,251.752,167.583,251.961,167.166,251.961Z" transform="translate(67.373 92.157)"/><path d="M171.757,258.569H103.935a.835.835,0,1,1,0-1.669h67.822a.835.835,0,1,1,0,1.669Z" transform="translate(67.373 99.113)"/><path d="M167.11,264.861H126.835a.835.835,0,0,1-.835-.835c0-.417.417-.626.835-.626H167.11c.417,0,.835.209.835.626A.835.835,0,0,1,167.11,264.861Z" transform="translate(92.261 106.178)"/><path d="M121.881,264.861H103.935a.835.835,0,0,1-.835-.835c0-.417.417-.626.835-.626h17.947a.626.626,0,0,1,.626.626C122.507,264.443,122.3,264.861,121.881,264.861Z" transform="translate(67.373 106.178)"/><path d="M190.181,251.961H167.435c-.417,0-.835-.209-.835-.626a.835.835,0,0,1,.835-.835h22.746c.417,0,.626.417.626.835a.626.626,0,0,1-.626.626Z" transform="translate(136.386 92.157)"/><path d="M205,258.569H167.435a.835.835,0,1,1,0-1.669H205a.835.835,0,0,1,0,1.669Z" transform="translate(136.386 99.113)"/><path d="M210.006,264.861H167.435a.835.835,0,0,1-.835-.835c0-.417.417-.626.835-.626h42.571c.417,0,.835.209.835.626a.835.835,0,0,1-.835.835Z" transform="translate(136.386 106.178)"/><path d="M268.3,290.271h-1.461a.835.835,0,0,1-.835-.835c0-.417.417-.626.835-.626H268.3a16.277,16.277,0,0,0,16.695-13.356c.209-.417.626-.835,1.043-.626s.626.417.626.835A18.155,18.155,0,0,1,268.3,290.271Z" transform="translate(244.416 118.538)"/><path d="M276.026,289.612c-.417,0-.626-.417-.626-.835V213.235c0-.417.209-.835.626-.835a.835.835,0,0,1,.835.835v75.543A.835.835,0,0,1,276.026,289.612Z" transform="translate(254.632 50.749)"/><path d="M401.011,227.608c-.417,0-.626-.417-.626-.835V171.681a17.112,17.112,0,0,0-16.695-17.321H161.235c-.417,0-.835-.209-.835-.626a.835.835,0,0,1,.835-.835H383.69a18.364,18.364,0,0,1,18.155,18.781v55.092A.835.835,0,0,1,401.011,227.608Z" transform="translate(129.648 -13.917)"/><path d="M85.337,312.125c-.417,0-.835-.209-.835-.626V171.681A18.364,18.364,0,0,1,102.658,152.9H116.64c.417,0,.626.417.626.835a.626.626,0,0,1-.626.626H102.658a17.112,17.112,0,0,0-16.695,17.321V311.5a.626.626,0,0,1-.626.626Z" transform="translate(47.155 -13.917)"/><path d="M362.259,308.175h-259.6A18.573,18.573,0,0,1,84.5,289.185v-30.05a.835.835,0,0,1,.835-.835c.417,0,.626.417.626.835v30.05a17.112,17.112,0,0,0,16.695,17.529h259.6a.626.626,0,0,1,.626.626C362.885,307.758,362.676,308.175,362.259,308.175Z" transform="translate(47.155 100.635)"/><path d="M391.621,257.447H370.544c-.417,0-.835-.209-.835-.626a.835.835,0,0,1,.835-.835h20.242V111.161H245.961v88.481c0,.417-.209.835-.626.835a.835.835,0,0,1-.835-.835V110.535a.835.835,0,0,1,.835-.835H391.621c.417,0,.626.417.626.835V256.821A.626.626,0,0,1,391.621,257.447Z" transform="translate(221.049 -60.867)"/><path d="M336.418,181.261H276.735c-.417,0-.835-.209-.835-.626a.835.835,0,0,1,.835-.835h59.683a.835.835,0,0,1,.835.835C337.253,181.052,336.835,181.261,336.418,181.261Z" transform="translate(255.176 15.319)"/><path d="M279.272,184.5a.835.835,0,0,1-.835-.835V125.861H252.561v57.805a.835.835,0,0,1-.835.835c-.417,0-.626-.417-.626-.835V125.235c0-.417.209-.835.626-.835h27.546c.417,0,.626.417.626.835v58.431C279.9,184.083,279.689,184.5,279.272,184.5Z" transform="translate(228.222 -44.891)"/><path d="M301.172,194.057H279.886c-.417,0-.835-.209-.835-.626a.835.835,0,0,1,.835-.835h20.451V141.261H274.461v32.346c0,.417-.209.835-.626.835a.835.835,0,0,1-.835-.835v-33.18c0-.417.417-.626.835-.626h27.337c.417,0,.835.209.835.626v53.005C302.007,193.849,301.589,194.057,301.172,194.057Z" transform="translate(252.024 -28.154)"/><path d="M322.963,184.059H295.626a.626.626,0,0,1-.626-.626V149.626a.626.626,0,0,1,.626-.626h27.337c.417,0,.835.209.835.626v33.807C323.8,183.85,323.381,184.059,322.963,184.059Zm-26.5-1.461h25.877V150.461H296.461Z" transform="translate(275.934 -18.155)"/><path d="M72.9,188.67H72.48c-.417-.209-.417-.626-.209-1.043a5.217,5.217,0,0,1,2.713-2.087,5.008,5.008,0,0,1,3.756.835.626.626,0,0,1,.209,1.043c-.209.417-.626.417-1.043.209a2.922,2.922,0,0,0-4.382.835Z" transform="translate(33.718 21.474)"/><path d="M86.808,276.361l-.626-.417c-.209-.209-.209-.417,0-.835L114.562,234h.209a3.965,3.965,0,0,1,3.965-.417,5.634,5.634,0,0,1,2.087,1.252,4.8,4.8,0,0,1,.626,5.634,5.426,5.426,0,0,1,2.3,6.469c-1.878,6.469-25.877,27.963-36.728,29.633Zm28.8-41.319-26.92,39.441c11.269-3.548,32.137-23.164,33.6-28.172a4.174,4.174,0,0,0-2.3-5.217c-.209,0-.209-.209-.417-.626a.835.835,0,0,1,.209-.626,2.713,2.713,0,0,0-.209-4.174l-1.252-1.043a3.339,3.339,0,0,0-2.713.417Z" transform="translate(48.815 73.392)"/><path d="M76.774,257.327c-.209,0-.626-.209-.626-.417s-.209-.626,0-.835a160.265,160.265,0,0,0,11.06-19.825l.626-1.878c1.043-2.713,2.087-6.26,6.678-5.634a3.13,3.13,0,0,1,2.3,1.669c1.461,2.3,1.252,6.26-.209,10.434s-1.669,7.3,0,8.139,8.347-3.339,10.434-4.8,5.634-5.426,8.139-7.721a15.652,15.652,0,0,1,1.878-1.878c2.3-2.3,5.634-5.634,9.6-2.087a5.217,5.217,0,0,1,1.669,3.548c0,2.5-2.3,4.591-3.965,6.052l-1.043.835a136.265,136.265,0,0,1-13.147,11.06h-.417l-32.972,3.13ZM93.469,230.2c-2.5,0-3.339,1.878-4.174,4.8a7.511,7.511,0,0,1-.835,1.878,161.933,161.933,0,0,1-10.225,18.781l31.3-3.13a107.472,107.472,0,0,0,12.73-10.643l1.043-.835c1.461-1.461,3.548-3.339,3.548-5.008a2.921,2.921,0,0,0-1.252-2.3c-2.3-2.3-4.382-1.043-7.513,1.878l-1.878,1.878c-2.5,2.3-6.052,6.052-8.347,7.721s-8.973,6.469-11.895,5.217-2.713-5.008-.835-10.225,1.461-7.3.417-8.973a1.461,1.461,0,0,0-1.252-.835Z" transform="translate(37.98 68.427)"/><path d="M94.943,252.886a.417.417,0,0,1-.417-.417c-.417-.209-.209-.626,0-1.043l8.347-6.678a57.8,57.8,0,0,0,7.93-8.347h1.252a.762.762,0,0,1-.417,1.461c-1.252,1.461-4.8,5.426-7.721,8.139l-8.347,6.678Z" transform="translate(57.792 76.833)"/><path d="M355.367,249.085a12.521,12.521,0,0,1-12.73-10.851c-2.087,2.3-7.513,7.1-12.1,7.1h-.209a5.634,5.634,0,0,1-4.382-2.5c-5.634-7.1,9.808-27.755,10.643-28.59s.626-.417,1.043-.209a1.044,1.044,0,0,1,0,1.043c-4.174,5.843-14.608,21.7-10.434,26.92a3.965,3.965,0,0,0,3.13,1.669h.209c5.217,0,12.1-7.513,12.1-7.513h.835l.417.626c0,.417.835,11.06,11.478,11.06s12.521-24.416,13.147-33.807c0-.417.417-.626.835-.626s.835.417.626.835S367.47,249.085,355.367,249.085Z" transform="translate(308.222 51.836)"/><path d="M283.141,160.865a.835.835,0,0,1-.835-.626,49.234,49.234,0,0,0-1.878-8.347.835.835,0,0,1,.417-1.043l1.043.417a50.288,50.288,0,0,1,1.878,8.765c.209.417-.209.626-.626.835Zm-5.217-16.695-.626-.417a67.6,67.6,0,0,0-3.965-7.721c-.209-.209,0-.835.417-1.043a.762.762,0,0,1,1.043.417c.209.417,2.713,5.008,3.965,7.721a.835.835,0,0,1-.417,1.043Zm-8.556-15.025h-.626a56.138,56.138,0,0,0-5.634-6.678.626.626,0,0,1,.209-1.043h1.043c1.878,2.3,3.756,4.382,5.634,6.887s0,.835-.209,1.043Zm-11.895-12.73h-.417a60.728,60.728,0,0,0-6.887-5.426.626.626,0,0,1,0-1.043.835.835,0,0,1,1.043-.209l6.887,5.426a1.043,1.043,0,0,1,0,1.043Zm-14.19-9.808h-.209l-7.721-3.756a.835.835,0,0,1,.626-1.461l7.721,3.965c.417.209.417.626.417,1.043a1.043,1.043,0,0,1-.835.209Zm-15.651-7.1h-.417L219.076,96.8c-.417,0-.626-.417-.626-.835a1.043,1.043,0,0,1,1.043-.626l8.347,2.713c.417,0,.626.417.417.835a.626.626,0,0,1-.626.626Zm-16.695-4.591h-.209c-2.713-.417-5.634-1.043-8.556-1.252s-.626-.417-.626-.835a.835.835,0,0,1,.835-.835l8.556,1.461c.417,0,.626.417.626.835A.626.626,0,0,1,210.937,94.922Z" transform="translate(173.435 -80.104)"/><path d="M141.456,161.646h-.209c-.209-.209-.626-.626-.417-.835a79.706,79.706,0,0,1,3.13-8.347.835.835,0,0,1,1.461.626,41.526,41.526,0,0,0-3.13,8.139Zm7.1-15.86h-.417c-.209-.209-.417-.626-.209-.835a65.319,65.319,0,0,1,4.591-7.513c.209-.417.626-.626.835-.209a.835.835,0,0,1,.417,1.043,86.258,86.258,0,0,0-4.591,7.3C147.716,148.082,148.76,145.786,148.551,145.786Zm9.6-14.608h-.626a.835.835,0,0,1,0-1.043,79.727,79.727,0,0,1,5.634-6.678.835.835,0,0,1,1.043,0,1.043,1.043,0,0,1,0,1.043,84.088,84.088,0,0,0-5.426,6.678Zm11.686-12.73h-.626a.835.835,0,0,1,0-1.043,79.713,79.713,0,0,1,6.678-5.634.835.835,0,0,1,1.043,1.043l-6.678,5.634h-.417Zm13.773-10.643h-.626c-.209-.417-.209-.835.209-1.043l7.513-4.382a.855.855,0,0,1,.835,1.461,64.064,64.064,0,0,0-7.512,4.174Zm15.443-7.721-.835-.417a1.669,1.669,0,0,1,.417-1.043l8.347-2.922a1.043,1.043,0,0,1,1.043.626c0,.417-.209.835-.626.835l-8.139,2.922Zm16.486-4.8-.626-.626a1.044,1.044,0,0,1,.626-1.043l8.556-1.252c.417,0,.835.209.835.626s-.209.835-.626.835l-8.556,1.461ZM232.859,93.2a.835.835,0,0,1-.835-.835c0-.417.417-.626.835-.835h3.965c.209-.209.626.209.626.626s-.209.835-.626.835Z" transform="translate(108.316 -80.676)"/><path d="M420.3,286.426h-.417c-.417-.209-.417-.626-.209-1.043a84.49,84.49,0,0,0,4.8-7.1.835.835,0,0,1,1.043-.417.626.626,0,0,1,.209,1.044c-1.461,2.5-3.13,5.008-4.8,7.3Zm9.182-14.816h-.417a.626.626,0,0,1-.417-.835,68.025,68.025,0,0,0,3.756-7.93c.209-.417.626-.417,1.043-.417a.835.835,0,0,1,.417,1.043l-3.756,7.93Zm6.887-15.86a.209.209,0,0,1-.209-.209c-.417,0-.626-.417-.417-.835l2.5-8.347c0-.417.417-.626.835-.417s.626.417.626.835A86.7,86.7,0,0,1,437,255.123a.626.626,0,0,1-.626.626Zm4.382-16.9c-.626,0-.835-.417-.626-.835a77.927,77.927,0,0,0,1.043-8.556.626.626,0,0,1,.626-.626.835.835,0,0,1,.835.835c-.209,2.713-.626,5.634-1.043,8.556s-.417.626-.835.626ZM442,221.525c-.417,0-.835-.209-.835-.626a56.981,56.981,0,0,0-.626-8.556c0-.417.209-.835.626-.835s.835.209.835.626.626,5.843.835,8.765S442.422,221.525,442,221.525Zm-2.3-17.112-.835-.417a55.082,55.082,0,0,0-2.5-8.347c-.209-.417,0-.835.417-.835s.835,0,.835.417a55.727,55.727,0,0,1,2.713,8.347C440.544,204,440.126,204.413,439.709,204.413Zm-6.26-16.277c-.209,0-.417,0-.626-.417a82.814,82.814,0,0,0-4.174-7.3c-.209-.417-.209-.835.209-1.043s.835-.209,1.043.209a69.9,69.9,0,0,1,4.382,7.513.835.835,0,0,1-.417,1.043Zm-9.182-14.608h-.626a41.739,41.739,0,0,0-5.634-6.469.815.815,0,0,1,1.252-1.043,83.453,83.453,0,0,1,5.635,6.469c.209.417.209.835-.209,1.043Zm-12.1-12.312h-.417l-7.1-5.008a.835.835,0,0,1-.209-1.043c.209-.209.835-.417,1.043-.209l7.3,5.008a.835.835,0,0,1,0,1.043Zm-14.608-9.182h-.417c-2.5-1.043-5.217-2.3-7.93-3.13a.835.835,0,0,1,.626-1.461l7.93,3.339a.835.835,0,0,1,.417,1.043Zm-76.586-4.591a.626.626,0,0,1-.626-.626c-.209-.417,0-.835.417-.835a56.138,56.138,0,0,1,8.556-2.087c.417,0,.835.209.835.626s-.209.835-.626.835l-8.347,1.878Zm60.309-1.252h-.209l-8.556-1.669c-.417,0-.626-.417-.626-.835s.417-.835.835-.626l8.556,1.669c.417,0,.835.417.626.835a.626.626,0,0,1-.626.626Zm-43.2-2.087c-.417,0-.626-.209-.835-.626a.835.835,0,0,1,.626-.835l8.765-.835a.835.835,0,0,1,.835.835c0,.417-.209.626-.626.835Zm26.085-.626-8.765-.417c-.417,0-.835-.209-.835-.626a.835.835,0,0,1,.835-.835l8.765.417c.417,0,.626.417.626.835a.626.626,0,0,1-.626.626Z" transform="translate(303.388 -26.198)"/><path d="M200.313,110.925A12.312,12.312,0,0,1,188,98.613,12.1,12.1,0,0,1,200.313,86.3a12.312,12.312,0,0,1,12.312,12.312,12.521,12.521,0,0,1-12.312,12.312Zm0-23.164a10.852,10.852,0,1,0,10.643,10.851,10.852,10.852,0,0,0-10.643-10.851Z" transform="translate(159.643 -86.3)"/></g></svg>