<svg xmlns="http://www.w3.org/2000/svg" width="40" height="40" viewBox="0 0 40 40"><defs><style>.a{fill:#fff;fill-rule:evenodd;}</style></defs><path class="a" d="M20,0A20,20,0,1,1,0,20,20.01,20.01,0,0,1,20,0ZM13.747,31.24V15.621H8.555V31.24Zm18.72,0V22.283c0-4.8-2.561-7.029-5.977-7.029a5.157,5.157,0,0,0-4.679,2.579V15.621H16.62c.069,1.465,0,15.619,0,15.619h5.191V22.517a3.549,3.549,0,0,1,.171-1.267,2.841,2.841,0,0,1,2.664-1.9c1.878,0,2.63,1.433,2.63,3.532V31.24ZM11.186,8.09a2.706,2.706,0,1,0-.069,5.4h.034a2.707,2.707,0,1,0,.035-5.4Z"/></svg>