<svg xmlns="http://www.w3.org/2000/svg" width="259" height="62.12" viewBox="0 0 259 62.12"><defs><style>.a{fill:#fff;}</style></defs><g transform="translate(-126.371 -491.354)"><path class="a" d="M190.751,538.884,176.6,525.578a4.556,4.556,0,0,0-1.536-1.066,4.019,4.019,0,0,0-1.329-.235,4.337,4.337,0,0,0-1.466.254,3.274,3.274,0,0,0-1.243.8,3.968,3.968,0,0,0-.863,1.41,5.813,5.813,0,0,0-.329,2.068v20.067h6.489v-14.21l14.153,13.305a4.245,4.245,0,0,0,1.5,1.066,4.113,4.113,0,0,0,1.363.235,4.472,4.472,0,0,0,1.485-.254,3.162,3.162,0,0,0,1.259-.814,4.19,4.19,0,0,0,.863-1.429,5.825,5.825,0,0,0,.327-2.068v-20.03h-6.523ZM148.7,533.244H133.55v-8.57h-7.179v24.188h7.179v-9.328h15.144v9.328h7.111V524.674h-7.111Zm9.918,15.62h7.143v-24.19h-7.143Zm68.05-20.879a13.3,13.3,0,0,0-4.4-2.444,17.291,17.291,0,0,0-5.592-.868h-10.9l-4.557,6.292h15.465a7.83,7.83,0,0,1,2.692.451,7.24,7.24,0,0,1,2.175,1.229,5.47,5.47,0,0,1,1.449,1.861,5.64,5.64,0,0,1,0,4.718,5.514,5.514,0,0,1-1.416,1.825,6.39,6.39,0,0,1-2.158,1.175,8.709,8.709,0,0,1-2.745.416h-8.288v-8.858h-7.179v15.076h15.465a15.979,15.979,0,0,0,5.557-.94,13.6,13.6,0,0,0,4.4-2.585,11.907,11.907,0,0,0,2.9-3.9,11.467,11.467,0,0,0,1.053-4.9,11.019,11.019,0,0,0-3.919-8.551Zm15.909,3.344a3.7,3.7,0,0,1,1.846-.361h24.4l-5.639-6.292H244.969a16.4,16.4,0,0,0-4.512.543,8.506,8.506,0,0,0-3.072,1.519,5.933,5.933,0,0,0-1.761,2.368,8.082,8.082,0,0,0-.564,3.09,7.508,7.508,0,0,0,.519,2.839,5.525,5.525,0,0,0,1.588,2.188,7.669,7.669,0,0,0,2.692,1.41,13.063,13.063,0,0,0,3.867.506h12.565a3.383,3.383,0,0,1,1.863.4,1.5,1.5,0,0,1,.588,1.339,1.543,1.543,0,0,1-.586,1.355,3.271,3.271,0,0,1-1.863.415H238.839l-4.591,6.218h21.505a16.431,16.431,0,0,0,4.512-.543,8.346,8.346,0,0,0,3.089-1.555,5.877,5.877,0,0,0,1.76-2.495,9.468,9.468,0,0,0,.553-3.325,5.8,5.8,0,0,0-2.211-4.972A10.7,10.7,0,0,0,257,534.331H244.435a3.54,3.54,0,0,1-1.846-.376,1.432,1.432,0,0,1-.6-1.316,1.391,1.391,0,0,1,.59-1.312Zm41.439-.549c-.117-.169-12.082-12.1-12.082-12.1h-9.183l18.11,18.755Zm69.529-6.1v5.437h11.811v18.751h7.143V530.112h8.251l4.626-5.437Zm-14.287,0H312.037a17.528,17.528,0,0,0-5.557.85,13.053,13.053,0,0,0-4.4,2.423,11.363,11.363,0,0,0-2.9,3.76,10.993,10.993,0,0,0-1.053,4.826,11.468,11.468,0,0,0,1.053,4.9,11.9,11.9,0,0,0,2.9,3.9,13.578,13.578,0,0,0,4.4,2.585,15.974,15.974,0,0,0,5.557.94h17.247V533.754H314.509l-4.28,5.386h11.944v3.508H312.037a8.547,8.547,0,0,1-2.726-.415,6.609,6.609,0,0,1-2.158-1.175,5.233,5.233,0,0,1-1.416-1.825,5.509,5.509,0,0,1-.5-2.369,5.352,5.352,0,0,1,.519-2.367,5.828,5.828,0,0,1,1.432-1.863,6.543,6.543,0,0,1,2.158-1.23,8.117,8.117,0,0,1,2.692-.434h20.434v17.9h6.779v-9.689h15.76v9.615h6.779v-15.3H339.25Z" transform="translate(0 -6.746)"/><path class="a" d="M411.31,493.256s-67.354-18.546-82.91,60.218h6.279S346.38,485.122,411.31,493.256Z" transform="translate(-49.871 0)"/></g></svg>