<svg xmlns="http://www.w3.org/2000/svg" width="84.375" height="96" viewBox="0 0 84.375 96"><defs><style>.a{fill:#4f4f4f;}</style></defs><path class="a" d="M200.166,475.438A14.081,14.081,0,0,0,213.051,467h-25.77A14.081,14.081,0,0,0,200.166,475.438Z" transform="translate(-157.978 -379.438)"/><path class="a" d="M102.249,46.474V40.312A29.114,29.114,0,0,0,81.624,12.5V8.437a8.437,8.437,0,1,0-16.875,0V12.5A29.113,29.113,0,0,0,44.124,40.312v6.162a44.162,44.162,0,0,1-12.343,30.7,2.812,2.812,0,0,0,2.03,4.759h78.75a2.813,2.813,0,0,0,2.03-4.759A44.162,44.162,0,0,1,102.249,46.474ZM76,11.386c-.926-.089-1.864-.137-2.812-.137s-1.887.047-2.812.137V8.437a2.813,2.813,0,0,1,5.625,0Z" transform="translate(-30.999)"/><path class="a" d="M401.025,82.162a2.812,2.812,0,1,0,5.625,0,41.912,41.912,0,0,0-12.356-29.831,2.812,2.812,0,0,0-3.977,3.977A36.323,36.323,0,0,1,401.025,82.162Z" transform="translate(-322.275 -41.849)"/><path class="a" d="M33.813,84.975a2.813,2.813,0,0,0,2.812-2.813A36.324,36.324,0,0,1,47.334,56.309a2.812,2.812,0,0,0-3.977-3.977A41.911,41.911,0,0,0,31,82.162,2.813,2.813,0,0,0,33.813,84.975Z" transform="translate(-31 -41.85)"/></svg>