<svg xmlns="http://www.w3.org/2000/svg" width="95.546" height="96" viewBox="0 0 95.546 96"><defs><style>.a{fill:#4f4f4f;}</style></defs><path class="a" d="M23.886,96a3.437,3.437,0,0,1-.374-.021A3.425,3.425,0,0,1,20.495,92.2l1.856-16.766H10.237A10.181,10.181,0,0,1,3,72.417a10.278,10.278,0,0,1-3-7.273V10.286A10.291,10.291,0,0,1,6.252.808,10.132,10.132,0,0,1,10.237,0H85.309a10.181,10.181,0,0,1,7.239,3.013,10.278,10.278,0,0,1,3,7.273V65.143a10.291,10.291,0,0,1-6.252,9.478,10.131,10.131,0,0,1-3.985.808H47.947L26.169,95.12A3.4,3.4,0,0,1,23.886,96ZM47.772,52.6h0a3.685,3.685,0,0,1,1.714.425L60.9,59.054a1.463,1.463,0,0,0,.681.169,1.447,1.447,0,0,0,.86-.281,1.463,1.463,0,0,0,.582-1.437L60.843,44.738A3.712,3.712,0,0,1,61.9,41.462l9.232-9.043a1.472,1.472,0,0,0-.811-2.508L57.565,28.048a3.685,3.685,0,0,1-2.774-2.025L49.084,14.406a1.46,1.46,0,0,0-2.624,0L40.754,26.023a3.685,3.685,0,0,1-2.774,2.025L25.222,29.911a1.472,1.472,0,0,0-.811,2.508l9.233,9.043a3.712,3.712,0,0,1,1.06,3.277L32.524,57.5a1.463,1.463,0,0,0,2.123,1.55l11.411-6.027A3.685,3.685,0,0,1,47.772,52.6Z"/></svg>