<svg xmlns="http://www.w3.org/2000/svg" width="163.58" height="39.501" viewBox="0 0 163.58 39.501"><defs><style>.a{fill:#007dc6;}.b{fill:#ffc220;}</style></defs><g transform="translate(-280.563 518.416)"><g transform="translate(280.563 -518.416)"><path class="a" d="M0,9.447S4.07,26.125,4.72,28.832c.758,3.16,2.124,4.323,6.063,3.538l2.541-10.34c.644-2.568,1.076-4.4,1.49-7.012h.073a68.519,68.519,0,0,0,1.235,7.021s1.035,4.694,1.564,7.16,2.01,4.018,5.867,3.172L29.61,9.449H24.72l-2.067,9.91c-.556,2.885-1.06,5.139-1.449,7.778h-.069c-.353-2.613-.8-4.778-1.368-7.588l-2.153-10.1H12.52l-2.3,9.846c-.652,2.992-1.262,5.408-1.65,7.957H8.5c-.4-2.4-.927-5.437-1.5-8.334,0,0-1.368-7.042-1.848-9.47H0Zm46.608,0V32.37h4.655V9.446H46.608Zm65.56,0v16.91c0,2.332.439,3.965,1.378,4.963a5.158,5.158,0,0,0,3.79,1.438,11.064,11.064,0,0,0,3.368-.5l-.06-3.638a7.077,7.077,0,0,1-1.768.21c-1.586,0-2.117-1.016-2.117-3.109v-6.47h4.054V14.868h-4.054V9.447h-4.59ZM36.206,14.761A13.341,13.341,0,0,0,29.765,16.3l.916,3.137a9.437,9.437,0,0,1,4.7-1.32c2.86-.007,3.327,1.617,3.327,2.659v.246c-6.231-.009-10.167,2.147-10.167,6.542a5.185,5.185,0,0,0,5.487,5.2,6.244,6.244,0,0,0,5.013-2.226h.105s.712,2.976,4.633,1.838a25.165,25.165,0,0,1-.273-4.15V22.1c0-3.9-1.666-7.336-7.3-7.336Zm27.845,0a5.419,5.419,0,0,0-5.016,2.729h-.069V15.15H54.524V32.371H59.2v-10.1a4.043,4.043,0,0,1,.219-1.41,3.168,3.168,0,0,1,2.844-2.206c1.888,0,2.772,1.6,2.772,3.9V32.37h4.675V22.149a4.79,4.79,0,0,1,.195-1.4,2.951,2.951,0,0,1,2.808-2.1c1.914,0,2.833,1.569,2.833,4.28v9.436h4.678V22.228c0-5.349-2.716-7.467-5.782-7.467a6.234,6.234,0,0,0-3.4.935,7.246,7.246,0,0,0-2.181,2.145H68.8a4.915,4.915,0,0,0-4.747-3.08Zm25.7,0A13.346,13.346,0,0,0,83.307,16.3l.917,3.137a9.433,9.433,0,0,1,4.7-1.32c2.858-.007,3.326,1.617,3.326,2.659v.246c-6.23-.009-10.166,2.147-10.166,6.542a5.186,5.186,0,0,0,5.49,5.2,6.238,6.238,0,0,0,5.01-2.226h.106s.712,2.976,4.634,1.838a25.135,25.135,0,0,1-.272-4.15V22.1c0-3.9-1.667-7.336-7.3-7.336Zm19.434,0A5.069,5.069,0,0,0,104.5,18.4h-.131V15.15h-4.213V32.37h4.8V23.552a6.543,6.543,0,0,1,.1-1.271,3.625,3.625,0,0,1,3.8-3.028,8.81,8.81,0,0,1,1.386.123V14.868a4.627,4.627,0,0,0-1.058-.107ZM38.855,24.07v2.148A3.046,3.046,0,0,1,35.6,29.352a2.125,2.125,0,0,1-2.312-2.278c0-2.366,2.6-3.02,5.569-3Zm53.543,0v2.148a3.046,3.046,0,0,1-3.257,3.134,2.125,2.125,0,0,1-2.312-2.278c0-2.366,2.6-3.02,5.569-3Z" transform="translate(0 -1.157)"/><path class="b" d="M163.9,0c-1.5,0-2.7.839-2.7,1.861l.913,10.334a2,2,0,0,0,3.572,0l.917-10.334c0-1.022-1.2-1.861-2.7-1.861ZM149.031,8.29a2.9,2.9,0,0,0-2.23,1.587c-.754,1.3-.62,2.756.262,3.266l9.4,4.38a1.7,1.7,0,0,0,1.848-1s0,0,0,0a1.685,1.685,0,0,0-.06-2.1l-8.494-5.958a1.372,1.372,0,0,0-.729-.179Zm29.745,0a1.368,1.368,0,0,0-.728.179l-8.5,5.958a1.693,1.693,0,0,0-.06,2.1h0a1.7,1.7,0,0,0,1.847,1l9.409-4.38c.886-.51,1.013-1.965.264-3.266a2.907,2.907,0,0,0-2.234-1.587ZM156.819,21.924a.953.953,0,0,0-.35.059l-9.4,4.375c-.882.513-1.016,1.968-.262,3.27s2.077,1.917,2.959,1.407l8.495-5.953a1.691,1.691,0,0,0,.06-2.1l0,0a1.927,1.927,0,0,0-1.5-1.056Zm14.174,0a1.928,1.928,0,0,0-1.5,1.056l0,0a1.7,1.7,0,0,0,.06,2.1l8.5,5.953c.881.509,2.207-.108,2.962-1.407s.622-2.758-.264-3.27l-9.406-4.375a.951.951,0,0,0-.35-.059Zm-7.09,4.283a1.684,1.684,0,0,0-1.782,1.1l-.913,10.334c0,1.023,1.194,1.861,2.7,1.861s2.7-.838,2.7-1.861l-.915-10.334a1.69,1.69,0,0,0-1.787-1.1h0Z" transform="translate(-17.923)"/></g></g></svg>